<svg id="Laag_1" data-name="Laag 1" xmlns="http://www.w3.org/2000/svg" viewBox="0 0 283.5 283.5"><defs><style>.cls-1{fill:#fff;}.cls-2{fill:#70706f;}</style></defs><circle class="cls-1" cx="141.7" cy="141.7" r="137.9" transform="translate(-58.7 141.7) rotate(-45)"/><path class="cls-2" d="M141.7,7.7c74,0,134.1,60.1,134.1,134A134.2,134.2,0,0,1,141.7,275.8c-73.9,0-134-60.1-134-134.1a134.1,134.1,0,0,1,134-134m0-7.7C63.6,0,0,63.6,0,141.7S63.6,283.5,141.7,283.5s141.8-63.6,141.8-141.8S219.9,0,141.7,0Z"/><rect class="cls-2" x="181.1" y="143.1" width="28.7" height="66.98" transform="translate(-50.5 82.4) rotate(-21.2)"/><path class="cls-2" d="M223.6,209.7l-1.7-4.5-26.8,10.4,1.7,4.4a14.4,14.4,0,0,0,26.8-10.3Z"/><path class="cls-2" d="M194.5,138l-17.2-20.9-.2-.2a4.5,4.5,0,0,0-2.2-1.3h-.5l-1-.2-1.5.3-1.4.8a4.7,4.7,0,0,0-.6.9l-.4.3a5.4,5.4,0,0,0-.6,2.5.3.3,0,0,1-.1.2l1.4,27.1Z"/><path class="cls-2" d="M159.2,54.1H63.5a4.7,4.7,0,0,0-4.8,4.8V178.5a4.7,4.7,0,0,0,4.8,4.7h95.7a4.7,4.7,0,0,0,4.8-4.7V58.9A4.7,4.7,0,0,0,159.2,54.1ZM120.9,154.2H82.6a4.8,4.8,0,0,1,0-9.5h38.3a4.8,4.8,0,1,1,0,9.5Zm19.2-19.1H82.6a4.8,4.8,0,0,1,0-9.6h57.5a4.8,4.8,0,0,1,0,9.6Zm0-19.2H82.6a4.8,4.8,0,0,1,0-9.5h57.5a4.8,4.8,0,0,1,0,9.5Zm0-19.1H101.8a4.8,4.8,0,0,1,0-9.6h38.3a4.8,4.8,0,0,1,0,9.6Z"/></svg>