<svg id="Laag_1" data-name="Laag 1" xmlns="http://www.w3.org/2000/svg" viewBox="0 0 283.5 283.5"><defs><style>.cls-1{fill:#fff;}.cls-2{fill:#70706f;}</style></defs><circle class="cls-1" cx="141.7" cy="141.7" r="137.9" transform="translate(-58.7 141.7) rotate(-45)"/><path class="cls-2" d="M141.7,7.7c74,0,134.1,60.1,134.1,134A134.2,134.2,0,0,1,141.7,275.8c-73.9,0-134-60.1-134-134.1a134.1,134.1,0,0,1,134-134m0-7.7C63.6,0,0,63.6,0,141.7S63.6,283.5,141.7,283.5s141.8-63.6,141.8-141.8S219.9,0,141.7,0Z"/><path class="cls-2" d="M107,100.3H32.9a4.4,4.4,0,0,0-4.3,4.4v74.1a4.3,4.3,0,0,0,4.3,4.3H107a4.4,4.4,0,0,0,4.4-4.3V104.7A4.4,4.4,0,0,0,107,100.3Zm-4.3,74.1H37.3V109h65.4Z"/><path class="cls-2" d="M151.3,121.8a4.4,4.4,0,1,0-5.9,6.5l11,9.7h-39a3.7,3.7,0,0,0-3.6,3.7,3.6,3.6,0,0,0,3.6,3.7h38.1l-9,10.1a4.4,4.4,0,1,0,6.5,5.8l16-17.8a4.8,4.8,0,0,0,1.1-3.2,4.6,4.6,0,0,0-1.5-3Z"/><circle class="cls-2" cx="213.5" cy="141.7" r="41.4"/></svg>