<svg id="Laag_1" data-name="Laag 1" xmlns="http://www.w3.org/2000/svg" viewBox="0 0 283.5 283.5"><defs><style>.cls-1{fill:#fff;}.cls-2{fill:#70706f;}</style></defs><circle class="cls-1" cx="141.7" cy="141.7" r="137.9" transform="translate(-58.7 141.7) rotate(-45)"/><path class="cls-2" d="M141.7,7.7c74,0,134.1,60.1,134.1,134A134.2,134.2,0,0,1,141.7,275.8c-73.9,0-134-60.1-134-134.1a134.1,134.1,0,0,1,134-134m0-7.7C63.6,0,0,63.6,0,141.7S63.6,283.5,141.7,283.5s141.8-63.6,141.8-141.8S219.9,0,141.7,0Z"/><path class="cls-2" d="M201.2,219.6l-13.4-26.5a18.5,18.5,0,0,0-8.4-9.5l-16.9-11.8a37.5,37.5,0,0,0,1.4-6l6.7-24.1,27.8,9.2a8.6,8.6,0,1,0,5.4-16.3l-25.7-8.5-1.9-4.4.2-.9c1.9-11.6-3.1-29.1-12.3-34.7,9,.7,13.4-6.6,15.4-16.3s-2.3-20.3-12.8-22.4S149.1,52.6,147,63.1a19.1,19.1,0,0,0,5.5,17.7l.3,4a18.9,18.9,0,0,0-7.9,4.2l-27.1,16-.7.7a8.6,8.6,0,0,0-4.9,6.3l-4.5,30.6a8.6,8.6,0,0,0,7.2,9.7,8.4,8.4,0,0,0,9.7-7.2l3.7-24.8,9.6-2.9-12.2,40.4a26.2,26.2,0,0,0,0,7.4l-14.3,15h-.9l-36.8,8.8,7.2,29.4,6.6-7.6,28.3-9.3a18.3,18.3,0,0,0,10.6-6.7l11-11.5a22.4,22.4,0,0,0,6.3,2.2h2.6a6.8,6.8,0,0,0,1.2,1.2l19.7,13.8a2.6,2.6,0,0,0,.3.8l14.3,35.1L209.7,225Z"/></svg>