<svg id="Laag_1" data-name="Laag 1" xmlns="http://www.w3.org/2000/svg" viewBox="0 0 283.5 283.5"><defs><style>.cls-1{fill:#fff;}.cls-2{fill:#70706f;}</style></defs><circle class="cls-1" cx="141.7" cy="141.7" r="137.9" transform="translate(-58.7 141.7) rotate(-45)"/><path class="cls-2" d="M141.7,7.7c74,0,134.1,60.1,134.1,134A134.2,134.2,0,0,1,141.7,275.8c-73.9,0-134-60.1-134-134.1a134.1,134.1,0,0,1,134-134m0-7.7C63.6,0,0,63.6,0,141.7S63.6,283.5,141.7,283.5s141.8-63.6,141.8-141.8S219.9,0,141.7,0Z"/><path class="cls-2" d="M203.6,67.1H169V60.4a8.6,8.6,0,0,0-8.7-8.9H123.5a8.9,8.9,0,0,0-9,8.9v6.7H80.2c-4.1,0-7.7,3.1-7.7,7.2V98.2H211V74.3A7.2,7.2,0,0,0,203.6,67.1Zm-40.9,0H122.3v-3c0-3.7,2-6.4,5.8-6.4h27.6c3.8,0,7,2.7,7,6.4Zm37.5,40.4H82.3a2.3,2.3,0,0,0-.5,1.3V221.4c0,5.8,6.5,10.6,14,10.6h90.9c7.6,0,14.9-4.8,14.9-10.6V108.8C201.6,108.3,200.3,107.5,200.2,107.5ZM116.1,215.2a7.5,7.5,0,0,1-7.5,7.4h-2.2a7.4,7.4,0,0,1-7.4-7.4V125.8a7.4,7.4,0,0,1,7.4-7.4h2.2a7.5,7.5,0,0,1,7.5,7.4Zm34.2,0a7.4,7.4,0,0,1-7.4,7.4h-2.3a7.4,7.4,0,0,1-7.4-7.4V125.8a7.4,7.4,0,0,1,7.4-7.4h2.3a7.4,7.4,0,0,1,7.4,7.4Zm34.2,0a7.4,7.4,0,0,1-7.4,7.4h-2.3a7.4,7.4,0,0,1-7.4-7.4V125.8a7.4,7.4,0,0,1,7.4-7.4h2.3a7.4,7.4,0,0,1,7.4,7.4Z"/></svg>