<svg id="Laag_1" data-name="Laag 1" xmlns="http://www.w3.org/2000/svg" viewBox="0 0 283.5 283.5"><defs><style>.cls-1{fill:#fff;}.cls-2{fill:#70706f;}</style></defs><circle class="cls-1" cx="141.7" cy="141.7" r="137.9" transform="translate(-58.7 141.7) rotate(-45)"/><path class="cls-2" d="M141.7,7.7c74,0,134.1,60.1,134.1,134A134.2,134.2,0,0,1,141.7,275.8c-73.9,0-134-60.1-134-134.1a134.1,134.1,0,0,1,134-134m0-7.7C63.6,0,0,63.6,0,141.7S63.6,283.5,141.7,283.5s141.8-63.6,141.8-141.8S219.9,0,141.7,0Z"/><path class="cls-2" d="M238.2,165l-1.4-1.4h0c1.9,8.4-19.8,14.8-31.2,17.5l-1.3.3-20.4,3.9c-7.1,1-14.2,1.8-21.4,2.3-3.5.2-7,.4-10.6.4l-21.6-.6-3.5-.3H126c-20.6-4.7-38.9-14.7-51.1-32.3a5.6,5.6,0,0,1-1.1-5.5c-5.7,1.6-19.8,6.4-24.5,9.7-8.3,5.8-8.9,8.6-1.4,20.2,6.1,9.1,14.7,17.1,27.5,23.2,7.8,3.8,11.3,3.8,21.5,3.4,50.5-2.2,104.7-6.8,136.9-26.5C237.3,177,244.5,172.1,238.2,165Z"/><path class="cls-2" d="M236.8,163.6h0C242.3,57.9,89.1,51,80.2,151a66.4,66.4,0,0,0,22.2,20.2q13.2-73.3,86.1-78.6c-49.2,9.1-69.2,39.8-73,84.6a112.2,112.2,0,0,0,11.9,3.5l3.5.3,2-19.5,15.8-.5,2.5,20.6a257.7,257.7,0,0,0,33-2.9l1-20.3,14.4-1.9,3.5,18.5c13.4-3.1,25.1-7.1,33.7-11.4h0Z"/></svg>