<svg id="Laag_1" data-name="Laag 1" xmlns="http://www.w3.org/2000/svg" viewBox="0 0 283.5 283.5"><defs><style>.cls-1{fill:#fff;}.cls-2{fill:#70706f;}</style></defs><circle class="cls-1" cx="141.7" cy="141.7" r="137.9" transform="translate(-58.7 141.7) rotate(-45)"/><path class="cls-2" d="M141.7,7.7c74,0,134.1,60.1,134.1,134A134.2,134.2,0,0,1,141.7,275.8c-73.9,0-134-60.1-134-134.1a134.1,134.1,0,0,1,134-134m0-7.7C63.6,0,0,63.6,0,141.7S63.6,283.5,141.7,283.5s141.8-63.6,141.8-141.8S219.9,0,141.7,0Z"/><path class="cls-2" d="M74.4,136.5,59,143a52.9,52.9,0,0,1,67.7-26.4,5.5,5.5,0,0,0,7.3-3.1,5.6,5.6,0,0,0-3.1-7.3,64.3,64.3,0,0,0-82.7,33.3l-6.5-15.6a5.6,5.6,0,0,0-10.4,4.3L43,155.8a5.5,5.5,0,0,0,3,3,5.4,5.4,0,0,0,4.3,0l28.4-12a5.6,5.6,0,0,0-4.3-10.3Z"/><path class="cls-2" d="M111.7,209.3a6.4,6.4,0,0,0-5.8-1.3l-11,3.4a6.5,6.5,0,0,0-4,4.4l-2.6,11.3a6.5,6.5,0,0,0,1.8,5.6l8.5,7.9a6.5,6.5,0,0,0,5.7,1.3l11.1-3.5a6.4,6.4,0,0,0,4-4.3l2.6-11.3a6.4,6.4,0,0,0-1.8-5.6Z"/><path class="cls-2" d="M220.2,44.6h0a15.9,15.9,0,0,0-22.7,4.1l-56.8,87.7-2.5,3.9a38.7,38.7,0,0,1-11.5,11.3l-.4.3a47.1,47.1,0,0,1-12,5.1h-.2a26.3,26.3,0,0,0-18.6,32.2,40.8,40.8,0,0,0,5.5,11.7l5.2-15.3s2.3-8.4,11-5.4,29.8,11,29.8,11,4.1-5.8,3-16.2a13.5,13.5,0,0,0-.5-2.9h0a19.4,19.4,0,0,1,3.6-16.1l5.6-7,64.7-81.6A15.9,15.9,0,0,0,220.2,44.6Zm-.6,20.2a11.3,11.3,0,1,1-18.2-13.3,11.3,11.3,0,0,1,18.2,13.3Z"/><path class="cls-2" d="M126.7,210.1c9.3-4.7,16.7-14,18.5-16.4l-11.5-4.1Z"/></svg>