<svg id="Laag_1" data-name="Laag 1" xmlns="http://www.w3.org/2000/svg" viewBox="0 0 283.5 283.5"><defs><style>.cls-1{fill:#fff;}.cls-2{fill:#70706f;}</style></defs><circle class="cls-1" cx="141.7" cy="141.7" r="137.9" transform="translate(-58.7 141.7) rotate(-45)"/><path class="cls-2" d="M141.7,7.7c74,0,134.1,60.1,134.1,134A134.2,134.2,0,0,1,141.7,275.8c-73.9,0-134-60.1-134-134.1a134.1,134.1,0,0,1,134-134m0-7.7C63.6,0,0,63.6,0,141.7S63.6,283.5,141.7,283.5s141.8-63.6,141.8-141.8S219.9,0,141.7,0Z"/><path class="cls-2" d="M141.7,50.9a90.8,90.8,0,1,0,90.8,90.8A91,91,0,0,0,141.7,50.9ZM71.9,141.7a69,69,0,0,1,13.8-41.3L183,197.8a69,69,0,0,1-41.3,13.8A69.9,69.9,0,0,1,71.9,141.7ZM197.8,183,100.4,85.7a69,69,0,0,1,41.3-13.8,69.9,69.9,0,0,1,69.9,69.8A69,69,0,0,1,197.8,183Z"/></svg>