<svg id="Laag_1" data-name="Laag 1" xmlns="http://www.w3.org/2000/svg" viewBox="0 0 283.5 283.5"><defs><style>.cls-1{fill:#fff;}.cls-2{fill:#70706f;}</style></defs><circle class="cls-1" cx="141.7" cy="141.7" r="137.9" transform="translate(-58.7 141.7) rotate(-45)"/><path class="cls-2" d="M141.7,7.7c74,0,134.1,60.1,134.1,134A134.2,134.2,0,0,1,141.7,275.8c-73.9,0-134-60.1-134-134.1a134.1,134.1,0,0,1,134-134m0-7.7C63.6,0,0,63.6,0,141.7S63.6,283.5,141.7,283.5s141.8-63.6,141.8-141.8S219.9,0,141.7,0Z"/><path class="cls-2" d="M164.7,193.3,151,207V132.3a7.5,7.5,0,0,0-7.5-7.4,7.4,7.4,0,0,0-7.4,7.4v74l-13.7-13.7a7.4,7.4,0,0,0-10.5,10.5l26.7,26.8a7.5,7.5,0,0,0,5.3,2.2,7.3,7.3,0,0,0,5.2-2.2l26.1-26.1a7.4,7.4,0,0,0-10.5-10.5Zm58.8-75.2a40.7,40.7,0,0,0-38.4-37.8,46.9,46.9,0,0,0-89.9,12,29.2,29.2,0,0,0-21.8,18.3,34.7,34.7,0,0,0-25.3,33.2c0,19.1,15.8,34.7,35.1,34.7h42.7V166.9H83.3a23.1,23.1,0,0,1-4.2-45.8l3.8-.7.8-3.7a17.5,17.5,0,0,1,17.1-13.4h5.9V97.5c0-19.1,15.8-34.6,35.1-34.6a35.4,35.4,0,0,1,33.7,24.8l7.3,4c16.1,0,29.2,13,29.2,28.6v3.4l2.4,1.7a22.8,22.8,0,0,1,9.3,18.4,23.3,23.3,0,0,1-23.4,23.1H161.2v11.6h39c19.4,0,35.1-15.6,35.1-34.6A33.6,33.6,0,0,0,223.5,118.1Z"/></svg>