<svg id="Group_3273" data-name="Group 3273" xmlns="http://www.w3.org/2000/svg" width="46.659" height="46.659" viewBox="0 0 46.659 46.659">
  <g id="Laag_1" data-name="Laag 1" transform="translate(0 0)">
    <g id="Group_3271" data-name="Group 3271">
      <rect id="Rectangle_3330" data-name="Rectangle 3330" width="46.659" height="46.659" rx="6.421" fill="#ececec"/>
    </g>
    <g id="Group_3272" data-name="Group 3272" transform="translate(8.368 5.558)">
      <path id="Path_3687" data-name="Path 3687" d="M67.164,51.88,61.3,55.288c-.062.021-.1.062-.16.082A.712.712,0,0,0,62,56.508l5.8-3.351-.5,2.312v.021a.541.541,0,0,0,.419.636.551.551,0,0,0,.657-.419l1-4.463-4.447-.977h-.14a.548.548,0,0,0-.538.439.579.579,0,0,0,.419.657l2.472.538Zm5.482-9.034,1.474-4.307a.56.56,0,0,0-1.055-.378L72.309,40.4l-3.191-5.9a.7.7,0,1,0-1.236.678h0l3.227,5.962-2.394-.817a.525.525,0,0,0-.678.279v.057a.548.548,0,0,0,.32.7h0l4.307,1.495ZM88.619,61.193c-.041-.1-.082-.181-.119-.279l-.041-.062-.2-.357-.156-.259-.041-.062a5.289,5.289,0,0,0-2.534-2.094,6.389,6.389,0,0,0-1.454-.439l-5.465-.957h-.181c2.673-.9,3.511-3.408,3.511-6.418s-1.913-6.759-5.662-6.759-5.662,3.03-5.662,6.759.838,5.523,3.507,6.418h-.177l-5.465.957a5.456,5.456,0,0,0-1.454.439,5.24,5.24,0,0,0-2.534,2.094l-.041.062-.16.259-.2.357v.062a1.77,1.77,0,0,0-.14.279,6.628,6.628,0,0,0-.538,1.753l-.14.977h26l-.14-.977a6.869,6.869,0,0,0-.538-1.753Zm3.289-5.445a.69.69,0,0,0-.259-.957l-5.8-3.351,2.254-.7h0a.543.543,0,0,0,.337-.7.493.493,0,0,0-.517-.378l-.16.041-4.348,1.355,1.359,4.348a.6.6,0,0,0,.7.378h0a.543.543,0,0,0,.337-.7l-.756-2.414,5.86,3.392h0a.7.7,0,0,0,.936-.259h0Z" transform="translate(-60.854 -29.064)" fill="#fff"/>
      <circle id="Ellipse_2063" data-name="Ellipse 2063" cx="8.116" cy="8.116" r="8.116" transform="translate(16.836 1.142)" fill="#fff"/>
      <path id="Path_3688" data-name="Path 3688" d="M67.659,48.829a9,9,0,0,0,4.706,2.291A9.18,9.18,0,1,0,66.4,47.392a.524.524,0,0,0,.1.119m14.675-4.225a7.274,7.274,0,0,1-3.01,4.8,7.418,7.418,0,0,1-11.625-7.26,7.3,7.3,0,0,1,3.01-4.8,7.385,7.385,0,0,1,5.523-1.277,7.419,7.419,0,0,1,6.081,8.537Z" transform="translate(-48.908 -32.89)" fill="none"/>
      <path id="Path_3689" data-name="Path 3689" d="M66.164,42.447V34.091h2.69a3.938,3.938,0,0,1,2,.5A3.356,3.356,0,0,1,72.225,36a4.167,4.167,0,0,1,.5,2.057v.378a4.325,4.325,0,0,1-.476,2.053,3.57,3.57,0,0,1-1.355,1.417,3.86,3.86,0,0,1-1.975.517H66.164Zm2.012-6.8v5.244h.7a1.572,1.572,0,0,0,1.339-.616,2.993,2.993,0,0,0,.456-1.835v-.361a3.169,3.169,0,0,0-.456-1.831,1.563,1.563,0,0,0-1.359-.62h-.678Z" transform="translate(-44.362 -29.162)" fill="#ececec"/>
    </g>
  </g>
</svg>
