<svg id="Group_3270" data-name="Group 3270" xmlns="http://www.w3.org/2000/svg" width="46.659" height="46.659" viewBox="0 0 46.659 46.659">
  <g id="Laag_1" data-name="Laag 1" transform="translate(0 0)">
    <g id="Group_3268" data-name="Group 3268">
      <rect id="Rectangle_3329" data-name="Rectangle 3329" width="46.659" height="46.659" rx="6.421" fill="#ececec"/>
    </g>
    <g id="Group_3269" data-name="Group 3269" transform="translate(7.217 5.437)">
      <path id="Path_3684" data-name="Path 3684" d="M61.51,40.889l2.033-1.716a14.586,14.586,0,0,0-2.016-2.012l-1.712,2.033a13.783,13.783,0,0,1,1.7,1.7Zm2.39,4.147,2.492-.92a15.8,15.8,0,0,0-1.215-2.591L62.886,42.86A11.259,11.259,0,0,1,63.9,45.036Zm-25.861-.021-2.492-.92a16.5,16.5,0,0,0-.76,2.755l2.616.456a15.085,15.085,0,0,1,.616-2.291Zm26.678,4.726,2.673.057v-.057a15.121,15.121,0,0,0-.259-2.854l-2.612.46a13.847,13.847,0,0,1,.2,2.394ZM57.86,37.818l1.335-2.3A15.534,15.534,0,0,0,56.6,34.307L55.688,36.8a14.535,14.535,0,0,1,2.172,1.018ZM51,35.962a13.848,13.848,0,0,1,2.394.222l.46-2.612a16.915,16.915,0,0,0-2.833-.263v2.653H51ZM63.9,54.489l2.492.916a19.091,19.091,0,0,0,.76-2.772l-2.612-.46a15.4,15.4,0,0,1-.62,2.316ZM46.276,36.779a11.331,11.331,0,0,1,2.291-.6l-.46-2.632a14.982,14.982,0,0,0-2.772.756l.92,2.492Zm-5.843,4.09L38.4,39.152A16.362,16.362,0,0,0,36.762,41.5l2.3,1.339a13.339,13.339,0,0,1,1.376-1.955Zm7.876,7.137a3.228,3.228,0,0,0-.181,3.33,3.2,3.2,0,0,0,1.913,1.536,2.853,2.853,0,0,0,.9.14,3.192,3.192,0,1,0-.1-6.381l-5.4-7.477a.308.308,0,0,0-.4-.078.293.293,0,0,0-.14.378ZM50.222,50.2a.851.851,0,0,1-.062-.616.933.933,0,0,1,.382-.5.883.883,0,0,1,.4-.1.488.488,0,0,1,.238.041.851.851,0,0,1,.48.378.89.89,0,0,1,.078.641.723.723,0,0,1-.4.476.767.767,0,0,1-.62.082.777.777,0,0,1-.5-.4ZM40.433,37.14l1.692,2.033A19.674,19.674,0,0,1,44.079,37.8l-1.314-2.291a15.731,15.731,0,0,0-2.353,1.634ZM62.845,56.661a12.385,12.385,0,0,1-1.376,1.955L63.5,60.328A15.467,15.467,0,0,0,65.156,58l-2.291-1.335ZM40.392,58.554,38.36,60.27a15.785,15.785,0,0,0,2.012,2.012l1.716-2.033a13.235,13.235,0,0,1-1.7-1.7Zm-5.843-8.832a17.121,17.121,0,0,0,.238,2.829l2.632-.456a13.45,13.45,0,0,1-.218-2.353H34.549Zm4.488,6.857a12.512,12.512,0,0,1-1-2.172l-2.492.9A19.82,19.82,0,0,0,36.742,57.9l2.3-1.335h0Zm16.589,6.1a13.578,13.578,0,0,1-2.312.6l.456,2.612a16.457,16.457,0,0,0,2.772-.719l-.9-2.492Zm4.147-2.39A13.377,13.377,0,0,1,57.8,61.666l1.339,2.312a19.715,19.715,0,0,0,2.353-1.634l-1.7-2.053ZM46.215,62.644A11.82,11.82,0,0,1,44.063,61.6l-1.339,2.3a17.551,17.551,0,0,0,2.591,1.215l.92-2.492h0Zm4.706.838a13.922,13.922,0,0,1-2.394-.222l-.456,2.612a15.047,15.047,0,0,0,2.85.259V63.481Z" transform="translate(-34.549 -31.49)" fill="#fff"/>
      <circle id="Ellipse_2062" data-name="Ellipse 2062" cx="8.116" cy="8.116" r="8.116" transform="translate(18.146 1.143)" fill="#fff"/>
      <path id="Path_3685" data-name="Path 3685" d="M41.669,48.8a9.01,9.01,0,0,0,4.706,2.3,9.173,9.173,0,1,0-5.962-3.728.531.531,0,0,0,.1.119m14.676-4.229a7.3,7.3,0,0,1-3.01,4.808,7.422,7.422,0,0,1-11.629-7.26,7.407,7.407,0,0,1,13.341-3.071,7.353,7.353,0,0,1,1.277,5.523Z" transform="translate(-21.61 -32.866)" fill="none"/>
      <path id="Path_3686" data-name="Path 3686" d="M47.136,41.459a3.417,3.417,0,0,1-1.355.838,5.708,5.708,0,0,1-1.955.32,3.567,3.567,0,0,1-2.632-1,4.076,4.076,0,0,1-1.055-2.792v-.719a4.866,4.866,0,0,1,.435-2.152,3.226,3.226,0,0,1,1.257-1.417,3.458,3.458,0,0,1,1.877-.5,3.737,3.737,0,0,1,2.431.714,3.068,3.068,0,0,1,1.018,2.135H45.222a1.628,1.628,0,0,0-.439-1,1.478,1.478,0,0,0-.977-.3,1.446,1.446,0,0,0-1.174.641,3.326,3.326,0,0,0-.419,1.835v.5a3.381,3.381,0,0,0,.419,1.872,1.5,1.5,0,0,0,1.335.641,1.545,1.545,0,0,0,1.174-.361V39.426h-1.4V38.051h3.412v3.429Z" transform="translate(-17.185 -29.21)" fill="#ececec"/>
    </g>
  </g>
</svg>
