<svg id="Group_3275" data-name="Group 3275" xmlns="http://www.w3.org/2000/svg" width="46.659" height="46.659" viewBox="0 0 46.659 46.659">
  <g id="Laag_1" data-name="Laag 1" transform="translate(0 0)">
    <g id="Group_3274" data-name="Group 3274">
      <rect id="Rectangle_3331" data-name="Rectangle 3331" width="46.659" height="46.659" rx="6.421" fill="#ececec"/>
    </g>
    <path id="Path_3690" data-name="Path 3690" d="M53.1,46.38l-4.886-1.117a12.058,12.058,0,0,0-.259,1.495v.062l4.964.575A8.5,8.5,0,0,1,53.1,46.4Zm.636-1.913-4.566-2.094a12.62,12.62,0,0,0-.558,1.413L53.362,45.4A7.192,7.192,0,0,1,53.74,44.466Zm5.843-5.305-1.634-4.747a13.148,13.148,0,0,0-1.417.579l2.115,4.546C58.947,39.4,59.267,39.28,59.583,39.161Zm1.955-.46L60.9,33.737a12.636,12.636,0,0,0-1.495.279L60.56,38.9a7.786,7.786,0,0,1,1-.181Zm-8.713,9.732-5.005-.1c0,.517,0,1.014.041,1.515l5.005-.4C52.845,49.11,52.824,48.769,52.824,48.433Zm.16,2.012-4.927.92c.1.5.222,1,.361,1.474l4.8-1.417a8.553,8.553,0,0,1-.238-.994Zm18.7-6.5,4.447-2.332a13.848,13.848,0,0,0-.78-1.314L71.191,43.07c.177.279.357.575.517.875Zm-4.767-9.789c-.476-.14-.977-.238-1.474-.341l-.858,4.948c.341.057.657.14,1,.218l1.355-4.825Zm5.523,11.666,4.808-1.4a14.78,14.78,0,0,0-.5-1.437l-4.644,1.9c.119.316.238.616.337.957Zm.361,1.992,5.005-.4a12.83,12.83,0,0,0-.2-1.495l-4.923.9c.057.337.1.678.14,1.014Zm-2.254-5.56,3.868-3.191A12.493,12.493,0,0,0,73.4,37.946l-3.531,3.548c.238.238.46.5.678.76Zm-21.656,12c.2.476.4.936.641,1.376l4.426-2.353c-.16-.3-.3-.6-.439-.916l-4.644,1.893Zm20.219-13.44,3.154-3.889a13.587,13.587,0,0,0-1.236-.9L68.28,40.216a8.172,8.172,0,0,1,.817.6ZM67.422,39.7l2.312-4.447c-.46-.238-.916-.439-1.4-.636L66.5,39.28a7.432,7.432,0,0,1,.92.419Zm2.85,15.554L74,58.6c.341-.382.657-.78.957-1.178l-4.045-2.952A8.648,8.648,0,0,1,70.272,55.253Zm-1.495,1.355,2.969,4.028a11.1,11.1,0,0,0,1.178-.977l-3.392-3.708a8.672,8.672,0,0,1-.776.636Zm-1.753,1.035,2.131,4.529c.46-.222.9-.46,1.339-.719l-2.575-4.307a10.052,10.052,0,0,1-.9.48Zm-1.918.661,1.178,4.882c.5-.119.977-.259,1.454-.419l-1.655-4.722a8.144,8.144,0,0,1-.977.279ZM49.893,41.033l4.328,2.534c.181-.3.357-.579.558-.858L50.73,39.76A13.621,13.621,0,0,0,49.893,41.033ZM72.345,51.82l4.747,1.6c.16-.48.3-.957.419-1.474l-4.886-1.1a7.578,7.578,0,0,1-.279.973Zm-.838,1.835,4.328,2.534a13.218,13.218,0,0,0,.7-1.355l-4.566-2.074A9.61,9.61,0,0,1,71.508,53.656Zm1.355-4.825a8.5,8.5,0,0,1-.078,1.018l4.985.616a12.46,12.46,0,0,0,.1-1.515l-5.005-.1ZM55.2,35.712a13.358,13.358,0,0,0-1.256.838l2.973,4.028c.279-.2.558-.382.838-.558Zm2.172,26.9c.46.177.957.337,1.437.476l1.335-4.825c-.316-.1-.657-.2-.957-.32l-1.835,4.669Zm5.8-3.991.14,5.005a12.167,12.167,0,0,0,1.515-.119l-.657-4.964A8.1,8.1,0,0,1,63.172,58.62ZM51.687,38.582l3.728,3.351a8.471,8.471,0,0,1,.719-.719l-3.367-3.708A13.354,13.354,0,0,0,51.687,38.582ZM60.3,63.428c.238.037.46.078.7.1.279.041.538.062.817.078l.361-5a8.509,8.509,0,0,1-1.018-.123l-.838,4.948Zm3.671-29.79a12.582,12.582,0,0,0-1.515-.041L62.6,38.6c.337,0,.657,0,.994.021l.382-5.005Z" transform="translate(-39.545 -25.163)" fill="#fff"/>
    <circle id="Ellipse_2064" data-name="Ellipse 2064" cx="8.116" cy="8.116" r="8.116" transform="translate(25.164 6.5)" fill="#fff"/>
    <path id="Path_3691" data-name="Path 3691" d="M54.633,48.78a9.038,9.038,0,0,0,4.71,2.3,9.18,9.18,0,1,0-5.962-3.728.486.486,0,0,0,.1.119m14.675-4.229a7.3,7.3,0,0,1-3.01,4.808,7.441,7.441,0,0,1-10.352-1.737,7.36,7.36,0,0,1-1.273-5.523,7.249,7.249,0,0,1,3.01-4.8,7.409,7.409,0,0,1,11.6,7.256Z" transform="translate(-27.557 -27.485)" fill="none"/>
    <path id="Path_3692" data-name="Path 3692" d="M60.02,35.6H57.507v6.8H55.494V35.6H53.039V34.043h6.98V35.6Z" transform="translate(-23.331 -23.753)" fill="#ececec"/>
  </g>
</svg>
