<svg id="Laag_1" data-name="Laag 1" xmlns="http://www.w3.org/2000/svg" viewBox="0 0 283.5 283.5"><defs><style>.cls-1{fill:#fff;}.cls-2{fill:#70706f;}</style></defs><circle class="cls-1" cx="141.7" cy="141.7" r="137.9" transform="translate(-58.7 141.7) rotate(-45)"/><path class="cls-2" d="M141.7,7.7c74,0,134.1,60.1,134.1,134A134.2,134.2,0,0,1,141.7,275.8c-73.9,0-134-60.1-134-134.1a134.1,134.1,0,0,1,134-134m0-7.7C63.6,0,0,63.6,0,141.7S63.6,283.5,141.7,283.5s141.8-63.6,141.8-141.8S219.9,0,141.7,0Z"/><path class="cls-2" d="M140.7,85.3c-38.4-33.6-87.2-4.1-88,35.9a51.6,51.6,0,0,0,8.6,29.3h38l6.7-11.2a5.2,5.2,0,0,1,8.8-.2L129,161.5l20.8-43.8a5.1,5.1,0,0,1,9.2-.2l17.8,33h43.3C252.2,100.4,188.8,43.3,140.7,85.3Z"/><path class="cls-2" d="M169.2,158.1l-14.4-26.8-20.4,43.1a5.1,5.1,0,0,1-9,.6l-14.8-23.3-4,6.6a5,5,0,0,1-4.4,2.5H69.5c1,1.1-4.5-4.3,67.6,67.3a5.2,5.2,0,0,0,7.3,0L212,160.8H173.7A5,5,0,0,1,169.2,158.1Z"/></svg>