<svg id="Laag_1" data-name="Laag 1" xmlns="http://www.w3.org/2000/svg" viewBox="0 0 283.5 283.5"><defs><style>.cls-1{fill:#fff;}.cls-2{fill:#70706f;}</style></defs><circle class="cls-1" cx="141.7" cy="141.7" r="137.9" transform="translate(-58.7 141.7) rotate(-45)"/><path class="cls-2" d="M141.7,7.7c74,0,134.1,60.1,134.1,134A134.2,134.2,0,0,1,141.7,275.8c-73.9,0-134-60.1-134-134.1a134.1,134.1,0,0,1,134-134m0-7.7C63.6,0,0,63.6,0,141.7S63.6,283.5,141.7,283.5s141.8-63.6,141.8-141.8S219.9,0,141.7,0Z"/><path class="cls-2" d="M205.8,132.3a64.6,64.6,0,0,0-69.6-48L143,72.7a9,9,0,0,0-3.2-12.3,9.1,9.1,0,0,0-12.4,3.2l-22.3,38.1,36.3,21.4a9.2,9.2,0,0,0,12.4-3.2,9.2,9.2,0,0,0-3.2-12.4L141,102a46.6,46.6,0,1,1-42.9,58.3,9.1,9.1,0,0,0-11-6.5,9,9,0,0,0-6.4,11,64.6,64.6,0,0,0,125.1-32.5Z"/></svg>