<svg id="Laag_1" data-name="Laag 1" xmlns="http://www.w3.org/2000/svg" viewBox="0 0 283.5 283.5"><defs><style>.cls-1{fill:#fff;}.cls-2{fill:#70706f;}</style></defs><circle class="cls-1" cx="141.6" cy="141.7" r="137.9" transform="translate(-58.7 141.7) rotate(-45)"/><path class="cls-2" d="M141.6,7.7c74,0,134.1,60.1,134.1,134A134.2,134.2,0,0,1,141.6,275.8c-73.9,0-134-60.1-134-134.1a134.1,134.1,0,0,1,134-134m0-7.7C63.5,0-.1,63.6-.1,141.7S63.5,283.5,141.6,283.5s141.8-63.6,141.8-141.8S219.8,0,141.6,0Z"/><path class="cls-2" d="M238,137.6l-29.4-29.4a8.2,8.2,0,1,0-11.5,11.6l15.1,15H71.1l15.1-15a8.2,8.2,0,0,0,0-11.6,8.4,8.4,0,0,0-11.6,0L45.2,137.6a8.2,8.2,0,0,0-2.3,5.8,8.3,8.3,0,0,0,2.3,5.8l28.7,28.6a7.8,7.8,0,0,0,5.7,2.4,8.2,8.2,0,0,0,5.8-14l-15.1-15H212.9l-15,15a8.2,8.2,0,0,0,0,11.6,8,8,0,0,0,5.7,2.4,8.2,8.2,0,0,0,5.8-2.4L238,149.2A8.2,8.2,0,0,0,238,137.6Z"/></svg>