<svg id="Laag_1" data-name="Laag 1" xmlns="http://www.w3.org/2000/svg" viewBox="0 0 283.5 283.5"><defs><style>.cls-1{fill:#fff;}.cls-2{fill:#70706f;}</style></defs><circle class="cls-1" cx="141.7" cy="141.7" r="137.9" transform="translate(-58.7 141.7) rotate(-45)"/><path class="cls-2" d="M141.7,7.7c74,0,134.1,60.1,134.1,134A134.2,134.2,0,0,1,141.7,275.8c-73.9,0-134-60.1-134-134.1a134.1,134.1,0,0,1,134-134m0-7.7C63.6,0,0,63.6,0,141.7S63.6,283.5,141.7,283.5s141.8-63.6,141.8-141.8S219.9,0,141.7,0Z"/><path class="cls-2" d="M140.2,74.5c5.1,0,9.3-1.4,9.3-3.1s-4.2-3.1-9.3-3.1-9.3,1.4-9.3,3.1S135.1,74.5,140.2,74.5Zm-55.7,0c5.2,0,9.3-1.4,9.3-3.1s-4.1-3.1-9.3-3.1-9.2,1.4-9.2,3.1S79.4,74.5,84.5,74.5ZM134,148.7c0,1.7,4.2,3.1,9.3,3.1s9.3-1.4,9.3-3.1-4.2-3.1-9.3-3.1S134,147,134,148.7Zm-18.5,3.1,12.8-5.4c1.7-4.1,7.5-7,15-7h1.4l11.2-4.7c1-3.9,5.7-6.8,12.1-7.6V83.8l-52.5,22.1Zm83.4,0c5.2,0,9.3-1.4,9.3-3.1s-4.1-3.1-9.3-3.1-9.2,1.4-9.2,3.1S193.8,151.8,198.9,151.8Zm-37.1-15.5c0,1.7,4.2,3.1,9.3,3.1s9.3-1.4,9.3-3.1-4.2-3.1-9.3-3.1S161.8,134.6,161.8,136.3ZM112.4,62.1c5.1,0,9.2-1.4,9.2-3.1s-4.1-3.1-9.2-3.1-9.3,1.4-9.3,3.1S107.2,62.1,112.4,62.1Zm100.5,90.6a17.7,17.7,0,0,1-14,5.3c-8.8,0-15.4-4-15.4-9.3a8,8,0,0,1,4.3-6.6l-3.1-1.3a18.4,18.4,0,0,1-13.6,4.8,18.4,18.4,0,0,1-13.6-4.8l-3.1,1.3a7.8,7.8,0,0,1,4.3,6.6c0,5.3-6.6,9.3-15.4,9.3a17.8,17.8,0,0,1-14-5.3l-9,3.8,50.8,21.3,50.8-21.3Zm-41.8,17.6c-8.8,0-15.5-3.9-15.5-9.2s6.7-9.3,15.5-9.3,15.5,4,15.5,9.3S179.9,170.3,171.1,170.3Zm3.1,12.9v44.3l52.6-22.1V161.1ZM171.1,158c-5.1,0-9.3,1.4-9.3,3.1s4.2,3.1,9.3,3.1,9.3-1.4,9.3-3.1S176.2,158,171.1,158Zm-8-78.8-8.9-3.8a17.9,17.9,0,0,1-14,5.3c-8.8,0-15.5-4-15.5-9.3a8.2,8.2,0,0,1,4.4-6.6l-3.2-1.3a18,18,0,0,1-13.5,4.8,18.4,18.4,0,0,1-13.6-4.8l-3.2,1.3a7.9,7.9,0,0,1,4.4,6.6c0,5.3-6.7,9.3-15.5,9.3a17.9,17.9,0,0,1-14-5.3l-8.9,3.8,50.8,21.3ZM96.9,83.8c0-5.3,6.6-9.3,15.5-9.3s15.4,4,15.4,9.3S121.2,93,112.4,93,96.9,89.1,96.9,83.8Zm24.7,0c0-1.7-4.1-3.1-9.2-3.1s-9.3,1.4-9.3,3.1,4.1,3.1,9.3,3.1S121.6,85.5,121.6,83.8ZM56.7,136.4v44.3L168,227.5V183.2l-56.8-23.9Zm52.6-30.5L56.7,83.8v45.9l52.6,22.1Z"/></svg>