<svg id="Laag_1" data-name="Laag 1" xmlns="http://www.w3.org/2000/svg" viewBox="0 0 283.5 283.5"><defs><style>.cls-1{fill:#fff;}.cls-2{fill:#70706f;}</style></defs><circle class="cls-1" cx="141.7" cy="141.7" r="137.9" transform="translate(-58.7 141.7) rotate(-45)"/><path class="cls-2" d="M141.7,7.7c74,0,134.1,60.1,134.1,134A134.2,134.2,0,0,1,141.7,275.8c-73.9,0-134-60.1-134-134.1a134.1,134.1,0,0,1,134-134m0-7.7C63.6,0,0,63.6,0,141.7S63.6,283.5,141.7,283.5s141.8-63.6,141.8-141.8S219.9,0,141.7,0Z"/><path class="cls-2" d="M92.6,79.9a2.6,2.6,0,0,0-1.8,2.4,2.6,2.6,0,0,0,1.6,2.3L88.2,96.2H98.4L94.2,84.6a2.5,2.5,0,0,0-.2-4.7V71l17.1,6.2v15c0,5.5,14.2,9.9,31.8,9.9s31.9-4.4,31.9-9.9v-15l28.4-10.4L142.9,49,82.6,66.8l10,3.7Z"/><path class="cls-2" d="M215,228.9a36.3,36.3,0,0,0-3-10c-.3-.5-.5-1.1-.8-1.6s-.1-.2-.1-.3-.7-1.3-1.2-2l-.9-1.5-.2-.2c-4-5.9-9.3-10.3-14.4-11.9a29.5,29.5,0,0,0-8.3-2.5L155,193.4h-1.1c15.2-5.1,20.1-19.5,20.1-36.4,0-21.3-11-38.5-32.3-38.5s-32.2,17.2-32.2,38.5c0,16.9,4.8,31.3,20.1,36.4h-1.1l-31.1,5.5a27.7,27.7,0,0,0-8.3,2.5c-5.1,1.6-10.4,6-14.4,11.9l-.2.2-1,1.5-1.1,2-.2.3-.7,1.6a36.3,36.3,0,0,0-3,10l-.9,5.6H215.8Z"/></svg>