<svg id="Laag_1" data-name="Laag 1" xmlns="http://www.w3.org/2000/svg" viewBox="0 0 283.5 283.5"><defs><style>.cls-1{fill:#fff;}.cls-2{fill:#70706f;}</style></defs><circle class="cls-1" cx="141.7" cy="141.7" r="137.9" transform="translate(-58.7 141.7) rotate(-45)"/><path class="cls-2" d="M141.7,7.7c74,0,134.1,60.1,134.1,134A134.2,134.2,0,0,1,141.7,275.8c-73.9,0-134-60.1-134-134.1a134.1,134.1,0,0,1,134-134m0-7.7C63.6,0,0,63.6,0,141.7S63.6,283.5,141.7,283.5s141.8-63.6,141.8-141.8S219.9,0,141.7,0Z"/><path class="cls-2" d="M237.5,87.1l-1.5-.7V83.7a4.5,4.5,0,0,0-2.2-3.7c-30.6-16.9-61.5-17.2-92.1-1.1-30.5-16.1-61.5-15.8-92,1.1a4.2,4.2,0,0,0-2.2,3.7v2.7l-1.5.7a8.3,8.3,0,0,0-4.7,7.4V208.1a6.4,6.4,0,0,0,8.1,6.1q46.2-13.5,92.3,2.5,46.2-15.9,92.3-2.5a6.5,6.5,0,0,0,8.2-6.1V94.5A8.3,8.3,0,0,0,237.5,87.1Zm-100,111.6a134.3,134.3,0,0,0-40.8-6.5,134.8,134.8,0,0,0-40.8,6.5V86.2c27.5-14.4,54.2-14.4,81.6,0Zm90,0a130.8,130.8,0,0,0-81.6,0V86.2c27.5-14.4,54.2-14.4,81.6,0Z"/></svg>