<svg id="Laag_1" data-name="Laag 1" xmlns="http://www.w3.org/2000/svg" viewBox="0 0 283.5 283.5"><defs><style>.cls-1{fill:#fff;}.cls-2{fill:#70706f;}</style></defs><circle class="cls-1" cx="141.7" cy="141.7" r="137.9" transform="translate(-58.7 141.7) rotate(-45)"/><path class="cls-2" d="M141.7,7.7c74,0,134.1,60.1,134.1,134A134.2,134.2,0,0,1,141.7,275.8c-73.9,0-134-60.1-134-134.1a134.1,134.1,0,0,1,134-134m0-7.7C63.6,0,0,63.6,0,141.7S63.6,283.5,141.7,283.5s141.8-63.6,141.8-141.8S219.9,0,141.7,0Z"/><path class="cls-2" d="M59.9,57.5l14.6,67v.2l10.4,45.6L24.6,142.4a8.6,8.6,0,0,1-.1-1.6A115.5,115.5,0,0,1,59.9,57.5Z"/><path class="cls-2" d="M152.1,25.5,110.4,79.6l-.8.9-27.2,34L68.3,50.1a116.4,116.4,0,0,1,72.3-25.2A110.7,110.7,0,0,1,152.1,25.5Z"/><path class="cls-2" d="M238.8,78.7H123.3l39.8-51.6A117.1,117.1,0,0,1,238.8,78.7Z"/><path class="cls-2" d="M207.7,125.8l-.6-.7-1.4-2L178,88.4h66.4A116.8,116.8,0,0,1,257,141a115.4,115.4,0,0,1-6.5,38.3Z"/><path class="cls-2" d="M177.8,251.1l16.7-70.9,1.9-8.4,8.1-34.4,41.8,52.2A117.7,117.7,0,0,1,177.8,251.1Z"/><path class="cls-2" d="M78,238.8l64.8-31.7L182.6,188h0l-15.6,66a116.6,116.6,0,0,1-89-15.3Z"/><path class="cls-2" d="M25.2,153.5l64.4,29.8,40.1,19.3L69.2,232.2A115.5,115.5,0,0,1,25.2,153.5Z"/></svg>