<svg id="Laag_1" data-name="Laag 1" xmlns="http://www.w3.org/2000/svg" viewBox="0 0 283.5 283.5"><defs><style>.cls-1{fill:#fff;}.cls-2{fill:#70706f;}</style></defs><circle class="cls-1" cx="143.2" cy="142" r="137.9" transform="translate(-58.4 142.8) rotate(-45)"/><path class="cls-2" d="M143.2,7.9C217.1,7.9,277.3,68,277.3,142S217.1,276,143.2,276,9.1,215.9,9.1,142,69.3,7.9,143.2,7.9m0-7.7C65.1.2,1.5,63.8,1.5,142S65.1,283.7,143.2,283.7,284.9,220.1,284.9,142,221.4.2,143.2.2Z"/><path class="cls-2" d="M125.1,260.5a48.5,48.5,0,0,1-5.5-.9l7.2-39.3a75,75,0,0,0,8.1,1.1l-3.4,39.9Zm-17.4-3.7c-3.9-1.2-7.7-2.5-11.4-4l15.1-37a68.1,68.1,0,0,0,7.6,2.6Zm35.8,4.9-.5-40a70.1,70.1,0,0,0,8-.5l4.7,39.7C151.7,261.4,147.6,261.6,143.5,261.7Zm24.2-2.8-8.7-39a75.9,75.9,0,0,0,7.8-2.2l12.6,38C175.6,256.9,171.7,258,167.7,258.9Zm23-7.6-16.5-36.4c2.5-1.2,5-2.4,7.3-3.8l19.9,34.7A119.5,119.5,0,0,1,190.7,251.3Zm20.9-12.1-23.3-32.5a60.1,60.1,0,0,0,6.3-5l26.5,29.9A98.8,98.8,0,0,1,211.6,239.2Zm18.2-16-29.4-27.1c1.8-2,3.6-4.1,5.2-6.2l31.9,24C235.1,217.1,232.5,220.2,229.8,223.2Zm14.5-19.4-34.2-20.6a69.4,69.4,0,0,0,3.8-7.1l36.1,17A99.3,99.3,0,0,1,244.3,203.8Zm10.4-21.9L217,168.6c.9-2.5,1.6-5.1,2.3-7.7l38.8,9.4C257.1,174.3,256,178.1,254.7,181.9Zm-33.9-29a74.1,74.1,0,0,0,.7-8l39.9,1.4c-.1,4-.5,8.1-1,12.1ZM66.6,115.2,29,101.8c1.4-3.9,2.9-7.6,4.6-11.2l36.1,17.1C68.6,110.2,67.5,112.6,66.6,115.2Zm154.8,21.6c-.2-2.7-.5-5.4-.9-8l39.4-6.6c.6,3.9,1.1,7.9,1.4,12ZM73.5,100.6,39.4,79.9a117,117,0,0,1,6.8-10l31.9,24C76.5,96.1,74.9,98.3,73.5,100.6Zm145.2,20.3a67.5,67.5,0,0,0-2.5-7.6l37.3-14.5c1.4,3.8,2.7,7.6,3.8,11.6ZM83.3,87.8,54,60.6a115,115,0,0,1,8.6-8.5l26.5,30A62.5,62.5,0,0,0,83.3,87.8Zm129.6,18c-1.2-2.3-2.6-4.7-4-6.9l33.6-21.7a110.8,110.8,0,0,1,6,10.6ZM95.4,77.1,72.1,44.6c3.3-2.4,6.7-4.5,10.2-6.6l19.9,34.7C99.9,74.1,97.6,75.5,95.4,77.1ZM204.2,92.3a78.4,78.4,0,0,0-5.4-6.1l28.6-27.9a98.3,98.3,0,0,1,8,9.1ZM109.4,69.1,93.1,32.6a119.9,119.9,0,0,1,11.3-4.4l12.5,38A77.1,77.1,0,0,0,109.4,69.1Zm83.5,11.6c-2.1-1.7-4.2-3.3-6.4-4.8l22.4-33.1a97.1,97.1,0,0,1,9.6,7.3ZM124.7,64l-8.6-39c4-.9,8-1.5,12-2l4.5,39.7C130,63,127.3,63.5,124.7,64Zm54.8,7.7a80,80,0,0,0-7.2-3.5l15.2-36.9c3.8,1.6,7.4,3.3,11,5.2Zm-38.8-9.5-.5-40c4,0,8.1.1,12.2.5l-3.7,39.8C146,62.3,143.4,62.2,140.7,62.2Zm23.9,3.3c-2.5-.7-5.1-1.4-7.8-1.9l7.5-39.2a119,119,0,0,1,11.8,2.8Z"/></svg>