<?xml version="1.0" encoding="UTF-8" standalone="no"?>
<!-- Created with Inkscape (http://www.inkscape.org/) -->

<svg
   version="1.1"
   id="svg2"
   xml:space="preserve"
   width="377.86667"
   height="377.86667"
   viewBox="0 0 377.86667 377.86667"
   sodipodi:docname="logo_timesheets.ai"
   xmlns:inkscape="http://www.inkscape.org/namespaces/inkscape"
   xmlns:sodipodi="http://sodipodi.sourceforge.net/DTD/sodipodi-0.dtd"
   xmlns="http://www.w3.org/2000/svg"
   xmlns:svg="http://www.w3.org/2000/svg"><defs
     id="defs6"><clipPath
       clipPathUnits="userSpaceOnUse"
       id="clipPath16"><path
         d="M 0,283.4 H 283.4 V 0 H 0 Z"
         id="path14" /></clipPath></defs><sodipodi:namedview
     id="namedview4"
     pagecolor="#ffffff"
     bordercolor="#666666"
     borderopacity="1.0"
     inkscape:pageshadow="2"
     inkscape:pageopacity="0.0"
     inkscape:pagecheckerboard="0" /><g
     id="g8"
     inkscape:groupmode="layer"
     inkscape:label="logo_timesheets"
     transform="matrix(1.3333333,0,0,-1.3333333,0,377.86667)"><g
       id="g10"><g
         id="g12"
         clip-path="url(#clipPath16)"><g
           id="g18"
           transform="translate(141.7,279.6)"><path
             d="m 0,0 c 76.16,0 137.9,-61.74 137.9,-137.9 0,-76.16 -61.74,-137.9 -137.9,-137.9 -76.16,0 -137.9,61.74 -137.9,137.9 C -137.9,-61.74 -76.16,0 0,0"
             style="fill:#ffffff;fill-opacity:1;fill-rule:nonzero;stroke:none"
             id="path20" /></g><g
           id="g22"
           transform="translate(141.7,283.4)"><path
             d="m 0,0 c -78.1,0 -141.7,-63.6 -141.7,-141.7 0,-78.1 63.6,-141.7 141.7,-141.7 78.1,0 141.7,63.6 141.7,141.7 C 141.7,-63.6 78.2,0 0,0 m 0,-7.7 c 73.9,0 134.1,-60.1 134.1,-134.1 0,-74 -60.1,-134.1 -134.1,-134.1 -74,0 -134,60.2 -134,134.2 0,74 60.1,134 134,134"
             style="fill:#70706f;fill-opacity:1;fill-rule:nonzero;stroke:none"
             id="path24" /></g><g
           id="g26"
           transform="translate(142.4,189.3)"><path
             d="m 0,0 c -34,0 -61.7,-27.7 -61.7,-61.7 0,-16.1 2.8,-21.2 8,-30.4 1.6,-2.8 5.1,-3.7 7.9,-2.2 2.8,1.6 3.8,5.1 2.2,7.9 -4.3,7.5 -6.5,16 -6.5,24.7 0,27.6 22.5,50.1 50.1,50.1 27.6,0 50.1,-22.5 50.1,-50.1 0,-15.129 -3.191,-19.192 -6.5,-24.7 -1.6,-2.8 -0.6,-6.3 2.2,-7.9 0.9,-0.5 1.9,-0.8 2.9,-0.8 2,0 4,1.1 5,2.9 5.2,9.2 8,19.7 8,30.4 0,34 -27.7,61.7 -61.7,61.7 z m 3.1,-60.5 c -0.4,-0.7 -1,-1.2 -1.7,-1.4 -0.7,-0.2 -1.5,-0.1 -2.2,0.2 -0.7,0.4 -1.2,1 -1.4,1.7 -0.2,0.7 -0.1,1.5 0.2,2.2 0.4,0.7 1,1.2 1.7,1.4 0.3,0 0.5,0.1 0.8,0.1 0.5,0 1,-0.1 1.4,-0.4 0.7,-0.4 1.2,-1 1.4,-1.7 0.2,-0.7 0.1,-1.5 -0.2,-2.1 m 18.3,39.4 c -0.5,0.3 -1.1,0.1 -1.4,-0.3 L 0.9,-47.8 c -4.2,0.2 -8.2,-2.1 -10.2,-5.8 -3,-5.5 -1,-12.3 4.5,-15.3 1.7,-0.9 3.5,-1.4 5.4,-1.4 1.9,0 2.1,0.1 3.2,0.5 2.9,0.8 5.3,2.8 6.7,5.4 2,3.7 1.8,8.3 -0.6,11.8 l 12,30.3 c 0.2,0.5 0,1.1 -0.5,1.4 z m 56.3,-49.3 c -4.7,0 -8.5,-3.8 -8.5,-8.5 0,-4.7 3.8,-8.5 8.5,-8.5 4.7,0 8.5,3.8 8.5,8.5 0,4.7 -3.8,8.5 -8.5,8.5 m 23.5,36.7 c -0.2,-0.3 -0.4,-0.5 -0.8,-0.6 -0.3,0 -0.7,0 -1,0.1 -0.1,0 -0.2,0.1 -0.3,0.2 -0.1,0.1 -0.3,0.3 -0.3,0.5 0,0.3 0,0.7 0.1,1 0.2,0.3 0.4,0.5 0.8,0.6 0.3,0 0.7,0 1,-0.1 0.3,-0.2 0.5,-0.4 0.6,-0.8 0,-0.3 0,-0.7 -0.1,-1 z m 2.4,4.1 c -0.3,0.3 -0.7,0.6 -1.1,0.8 -1.1,0.6 -2.5,0.8 -3.7,0.4 -1.8,-0.5 -3.1,-2 -3.4,-3.8 l -13,-5.6 c -0.2,0 -0.3,-0.3 -0.3,-0.6 0,-0.2 0.3,-0.4 0.5,-0.3 l 14,2.2 c 1.2,-1.3 3.2,-1.9 4.9,-1.4 2.6,0.8 4.1,3.5 3.3,6.1 -0.2,0.8 -0.7,1.5 -1.2,2.1 z m -4.8,-24.6 c -11.4,0 -20.7,9.3 -20.7,20.7 0,11.4 9.3,20.7 20.7,20.7 11.4,0 20.7,-9.3 20.7,-20.7 0,-11.4 -9.3,-20.7 -20.7,-20.7 m 0,50.3 c -16.3,0 -29.6,-13.2 -29.6,-29.6 0,-16.4 13.2,-29.6 29.6,-29.6 16.4,0 29.6,13.2 29.6,29.6 0,16.4 -13.2,29.6 -29.6,29.6 m -197,-31.8 c -0.2,-0.3 -0.4,-0.5 -0.8,-0.6 h -0.6 c -0.1,0 -0.2,0 -0.3,0.1 -0.3,0.2 -0.5,0.4 -0.6,0.8 0,0.3 0,0.7 0.1,1 0.2,0.3 0.4,0.5 0.8,0.6 0.3,0 0.7,0 1,-0.1 0.3,-0.2 0.5,-0.4 0.6,-0.8 0,-0.3 0,-0.7 -0.1,-1 z m 3.6,1.9 c -0.3,1.3 -1.1,2.3 -2.3,3 -0.4,0.2 -0.8,0.4 -1.3,0.5 -0.8,0.2 -1.6,0.2 -2.4,0 -2.6,-0.7 -4.2,-3.4 -3.5,-6 0.5,-1.8 1.9,-3.2 3.7,-3.5 l 5.3,-13.1 c 0,-0.2 0.3,-0.3 0.6,-0.3 0.2,0 0.4,0.3 0.3,0.5 l -1.9,14 c 1.4,1.2 2,3.1 1.5,4.9 m 17.9,-36.5 c -4.7,0 -8.5,-3.8 -8.5,-8.5 0,-4.7 3.8,-8.5 8.5,-8.5 4.7,0 8.5,3.8 8.5,8.5 0,4.7 -3.8,8.5 -8.5,8.5 m -22.5,16.1 c -11.4,0 -20.7,9.3 -20.7,20.7 0,11.4 9.3,20.7 20.7,20.7 11.4,0 20.7,-9.3 20.7,-20.7 0,-11.4 -9.3,-20.7 -20.7,-20.7 m 29.6,20.7 c 0,16.3 -13.2,29.6 -29.6,29.6 -16.4,0 -29.6,-13.2 -29.6,-29.6 0,-16.4 13.2,-29.6 29.6,-29.6 16.4,0 29.6,13.2 29.6,29.6"
             style="fill:#70706f;fill-opacity:1;fill-rule:nonzero;stroke:none"
             id="path28" /></g></g></g></g></svg>
