<?xml version="1.0" encoding="UTF-8"?><svg id="a" xmlns="http://www.w3.org/2000/svg" viewBox="0 0 283.5 283.5"><defs><style>.b{fill:#fff;}.c{fill:#70706f;}</style></defs><g><circle class="b" cx="141.7" cy="141.7" r="137.9" transform="translate(-58.7 141.7) rotate(-45)"/><path class="c" d="M141.7,7.7c73.9,0,134.1,60.1,134.1,134.1s-60.1,134.1-134.1,134.1S7.7,215.7,7.7,141.7,67.8,7.7,141.7,7.7M141.7,0C63.6,0,0,63.6,0,141.7s63.6,141.7,141.7,141.7,141.7-63.6,141.7-141.7S219.9,0,141.7,0h0Z"/></g><path class="c" d="M188.8,121h0c-6.9,0-12.6,5.6-12.6,12.6v-6.2c0-6.9-5.6-12.6-12.6-12.6h0c-6.9,0-12.6,5.6-12.6,12.6v-56.5c0-6.9-5.6-12.6-12.6-12.6h0c-6.9,0-12.6,5.6-12.6,12.6v63h-.4l-4.8-53.1c-.6-6.9-6.7-12-13.6-11.4h0c-6.9,.6-12,6.7-11.4,13.6l5.1,56v22.1l-18.3-18.3c-4.9-4.9-12.9-4.9-17.8,0h0c-4.9,4.9-4.9,12.9,0,17.8l49.7,49.7c9.2,9.8,22.2,15.9,36.7,15.9h0c27.8,0,50.3-22.5,50.3-50.3v-42.4c0-6.9-5.6-12.6-12.6-12.6Z"/></svg>