<svg id="Laag_1" data-name="Laag 1" xmlns="http://www.w3.org/2000/svg" viewBox="0 0 283.5 283.5"><defs><style>.cls-1{fill:#fff;}.cls-2{fill:#70706f;}</style></defs><circle class="cls-1" cx="141.7" cy="141.7" r="137.9" transform="translate(-58.7 141.7) rotate(-45)"/><path class="cls-2" d="M141.7,7.7c74,0,134.1,60.1,134.1,134A134.2,134.2,0,0,1,141.7,275.8c-73.9,0-134-60.1-134-134.1a134.1,134.1,0,0,1,134-134m0-7.7C63.6,0,0,63.6,0,141.7S63.6,283.5,141.7,283.5s141.8-63.6,141.8-141.8S219.9,0,141.7,0Z"/><path class="cls-2" d="M79.4,65.7,67.3,51.3A107.3,107.3,0,0,0,53,65.6L67.4,77.7A97.2,97.2,0,0,1,79.4,65.7ZM57.7,91.6,41.4,82.2a113,113,0,0,0-8.6,18.3L50.5,107A86.4,86.4,0,0,1,57.7,91.6ZM238,123.1l18.5-3.3a110.3,110.3,0,0,0-5.3-19.5l-17.6,6.5A103.3,103.3,0,0,1,238,123.1Zm-191.9.2-18.5-3.2a113.2,113.2,0,0,0-1.8,20.2v.4l18.9-.4A96.7,96.7,0,0,1,46.1,123.3Zm62.6-74.6L102.2,31a113,113,0,0,0-18.3,8.6l9.4,16.3A98,98,0,0,1,108.7,48.7Zm33.2-5.9V24a113,113,0,0,0-20.1,1.8L125,44.3A96.5,96.5,0,0,1,141.9,42.8ZM46.2,157.6l-18.5,3.3A123.6,123.6,0,0,0,33,180.5L50.6,174A101.7,101.7,0,0,1,46.2,157.6ZM181.7,31a109.1,109.1,0,0,0-19.6-5.3l-3.2,18.6a88.8,88.8,0,0,1,16.3,4.3Zm44.7,60.4L242.6,82A120.3,120.3,0,0,0,231,65.4L216.6,77.5A105.2,105.2,0,0,1,226.4,91.4ZM184.9,67.5a2.1,2.1,0,0,0-1-2.7,2.1,2.1,0,0,0-2.8.6l-38.2,52.9A22.5,22.5,0,0,0,122.3,130a22.8,22.8,0,0,0,9,30.7,23.2,23.2,0,0,0,10.8,2.8,20.3,20.3,0,0,0,6.4-1A22.1,22.1,0,0,0,162,151.7a22.6,22.6,0,0,0-1.2-23.6Zm-37.6,76.1a5.7,5.7,0,0,1-3.5,2.8,5.2,5.2,0,0,1-4.4-.5,5.3,5.3,0,0,1-2.8-3.4,5.9,5.9,0,0,1,.5-4.5,5.5,5.5,0,0,1,3.4-2.7,5.1,5.1,0,0,1,1.7-.3,7.2,7.2,0,0,1,2.8.7,5.9,5.9,0,0,1,2.7,3.5A5.6,5.6,0,0,1,147.3,143.6ZM200,39.5l-9.3,16.3a108.4,108.4,0,0,1,13.9,9.7l12-14.4A114.5,114.5,0,0,0,200,39.5ZM41.6,198.8a112,112,0,0,0,11.7,16.5l14.4-12.1a94.4,94.4,0,0,1-9.8-13.9Zm163.3,15.9L217,229.1a113.6,113.6,0,0,0,14.3-14.3l-14.4-12.1A104.6,104.6,0,0,1,204.9,214.7Zm34.6-74.4A93.4,93.4,0,0,1,238,157l18.6,3.2a122.1,122.1,0,0,0,1.7-20.1Zm-12.9,48.5,16.3,9.4a127.5,127.5,0,0,0,8.5-18.4l-17.7-6.4A97.5,97.5,0,0,1,226.6,188.8ZM102.7,249.7a110.8,110.8,0,0,0,19.6,5.1l3.2-18.5a101.4,101.4,0,0,1-16.4-4.3Zm-35-20.1a126.6,126.6,0,0,0,16.6,11.6l9.4-16.4a94.6,94.6,0,0,1-14-9.7Zm108,2.2,6.5,17.6a117.1,117.1,0,0,0,18.3-8.6L191,224.5A97.5,97.5,0,0,1,175.7,231.8Zm-33.3,5.9v18.8a113.2,113.2,0,0,0,20.2-1.8l-3.3-18.5A94.8,94.8,0,0,1,142.4,237.7Z"/></svg>