<svg id="Laag_1" data-name="Laag 1" xmlns="http://www.w3.org/2000/svg" viewBox="0 0 283.5 283.5"><defs><style>.cls-1{fill:#fff;}.cls-2{fill:#70706f;}</style></defs><circle class="cls-1" cx="142.4" cy="141.7" r="137.9" transform="translate(-58.5 142.2) rotate(-45)"/><path class="cls-2" d="M142.4,7.7c73.9,0,134.1,60.1,134.1,134S216.3,275.8,142.4,275.8,8.3,215.7,8.3,141.7,68.5,7.7,142.4,7.7m0-7.7C64.3,0,.7,63.6.7,141.7S64.3,283.5,142.4,283.5s141.7-63.6,141.7-141.8S220.5,0,142.4,0Z"/><path class="cls-2" d="M72.4,125.5a3.4,3.4,0,0,0-2.5,3.9,3.3,3.3,0,0,0,3.2,2.6h.8l26.4-5.8L94.4,99.7a3.3,3.3,0,0,0-3.9-2.5,3.2,3.2,0,0,0-2.5,3.9l3,13.7L56.5,94.9a4.2,4.2,0,1,0-4.2,7.2l34.8,20.2Zm69-23.5,19.9-18.3a3.3,3.3,0,1,0-4.5-4.9l-10.3,9.5V48.5a4.2,4.2,0,1,0-8.4,0V88.7L127.9,77.6a3.1,3.1,0,0,0-4.6-.2,3.2,3.2,0,0,0-.2,4.6Zm73.1,114.3c-.2-.6-.5-1.1-.7-1.7l-.2-.3-1.2-2.1-1-1.5-.2-.3c-4.2-6.2-9.7-10.7-15-12.4a35.1,35.1,0,0,0-8.7-2.6L155,189.7h-1.1c15.9-5.3,20.9-20.3,20.9-38.1,0-22.1-11.4-40.1-33.6-40.1s-33.6,18-33.6,40.1c0,17.8,5,32.8,20.9,38.1h-1.1l-32.5,5.7a35.1,35.1,0,0,0-8.7,2.6c-5.2,1.7-10.8,6.2-15,12.4l-.2.3-1,1.5-1.2,2.1v.3a13,13,0,0,0-.8,1.7,39.4,39.4,0,0,0-3.2,10.4l-.8,5.8H218.5l-.8-5.8A39.4,39.4,0,0,0,214.5,216.3ZM234,99.3a4.1,4.1,0,0,0-5.7-1.5l-34.8,20.1,4.5-14.3a3.3,3.3,0,0,0-2.1-4.2,3.5,3.5,0,0,0-4.2,2.2l-8.1,25.8,25.8,8.1,1,.2a3.2,3.2,0,0,0,3.1-2.3,3.3,3.3,0,0,0-2.1-4.2L198,125l34.5-19.9A4.2,4.2,0,0,0,234,99.3Z"/></svg>