<svg id="Laag_1" data-name="Laag 1" xmlns="http://www.w3.org/2000/svg" viewBox="0 0 283.5 283.5"><defs><style>.cls-1{fill:#fff;}.cls-2{fill:#70706f;}</style></defs><circle class="cls-1" cx="141.7" cy="141.7" r="137.9" transform="translate(-58.7 141.7) rotate(-45)"/><path class="cls-2" d="M141.7,7.7c74,0,134.1,60.1,134.1,134A134.2,134.2,0,0,1,141.7,275.8c-73.9,0-134-60.1-134-134.1a134.1,134.1,0,0,1,134-134m0-7.7C63.6,0,0,63.6,0,141.7S63.6,283.5,141.7,283.5s141.8-63.6,141.8-141.8S219.9,0,141.7,0Z"/><path class="cls-2" d="M87.3,66.4H67.2a9.5,9.5,0,0,0-9.5,9.4V95.9a9.6,9.6,0,0,0,9.5,9.5H87.3a9.5,9.5,0,0,0,9.4-9.5V75.8A9.4,9.4,0,0,0,87.3,66.4Zm0,55.8H67.2a9.6,9.6,0,0,0-9.5,9.5v20.1a9.5,9.5,0,0,0,9.5,9.4H87.3a9.4,9.4,0,0,0,9.4-9.4V131.7A9.5,9.5,0,0,0,87.3,122.2Zm0,55.9H67.2a9.5,9.5,0,0,0-9.5,9.4v20.2a9.5,9.5,0,0,0,9.5,9.4H87.3a9.5,9.5,0,0,0,9.4-9.4V187.5A9.4,9.4,0,0,0,87.3,178.1ZM117.7,76.7V95h108V76.7Zm0,74.2h108V132.6h-108Zm0,55.9h108V188.4h-108Z"/></svg>