<svg id="Laag_1" data-name="Laag 1" xmlns="http://www.w3.org/2000/svg" viewBox="0 0 283.5 283.5"><defs><style>.cls-1{fill:#fff;}.cls-2{fill:#70706f;}</style></defs><circle class="cls-1" cx="141.7" cy="141.7" r="137.9" transform="translate(-58.7 141.7) rotate(-45)"/><path class="cls-2" d="M141.7,7.7c74,0,134.1,60.1,134.1,134A134.2,134.2,0,0,1,141.7,275.8c-73.9,0-134-60.1-134-134.1a134.1,134.1,0,0,1,134-134m0-7.7C63.6,0,0,63.6,0,141.7S63.6,283.5,141.7,283.5s141.8-63.6,141.8-141.8S219.9,0,141.7,0Z"/><path class="cls-2" d="M236.2,136.5l-28.8-28.8A8,8,0,1,0,196.1,119l14.8,14.8H148.8v-62l14.8,14.8a8,8,0,0,0,11.3-11.3L146.8,47.2a8.2,8.2,0,0,0-11.3,0L106.6,76a8.1,8.1,0,0,0,0,11.4,8.2,8.2,0,0,0,11.4,0l14.7-14.8v61.2H72.4L87.2,119a8,8,0,1,0-11.4-11.3L47,136.5a7.9,7.9,0,0,0,0,11.3l28.1,28.1a7.7,7.7,0,0,0,5.6,2.4,8.1,8.1,0,0,0,5.7-13.7L71.6,149.8h61.1V211L118,196.2a8.1,8.1,0,1,0-11.4,11.4l28.9,28.8a7.9,7.9,0,0,0,11.3,0l28.1-28.1A8,8,0,0,0,163.6,197l-14.8,14.8v-62h62.8l-14.8,14.8a8.1,8.1,0,0,0,5.7,13.7,8.1,8.1,0,0,0,5.7-2.4l28-28.1A7.9,7.9,0,0,0,236.2,136.5Z"/></svg>