<svg id="Laag_1" data-name="Laag 1" xmlns="http://www.w3.org/2000/svg" viewBox="0 0 283.5 283.5"><defs><style>.cls-1{fill:#fff;}.cls-2{fill:#70706f;}</style></defs><circle class="cls-1" cx="141.7" cy="141.7" r="137.9" transform="translate(-58.7 141.7) rotate(-45)"/><path class="cls-2" d="M141.7,7.7c74,0,134.1,60.1,134.1,134A134.2,134.2,0,0,1,141.7,275.8c-73.9,0-134-60.1-134-134.1a134.1,134.1,0,0,1,134-134m0-7.7C63.6,0,0,63.6,0,141.7S63.6,283.5,141.7,283.5s141.8-63.6,141.8-141.8S219.9,0,141.7,0Z"/><rect class="cls-2" x="126.4" y="58" width="92.1" height="54.91" rx="5.1"/><path class="cls-2" d="M105.7,162a5,5,0,0,1-5.1,5.1,5.1,5.1,0,0,1-5.1-5.1V151.2H64.6v26.2h72V151.2H105.7Z"/><path class="cls-2" d="M223.9,125.9H184.4V116H160.5v9.9H59.5a5.1,5.1,0,0,0,0,10.2h5.1v10.6H218.5V136.1h5.4a5.1,5.1,0,1,0,0-10.2Z"/><path class="cls-2" d="M105.9,192.7a5.1,5.1,0,0,1-10.2,0v-9.1H64.6v36.8a5.2,5.2,0,0,0,10.3,0V207.7h51.5v12.7a5.1,5.1,0,0,0,10.2,0V183.6H105.9Z"/><path class="cls-2" d="M208.2,220.4a5.2,5.2,0,0,0,10.3,0V151.2H208.2Z"/></svg>