<svg id="Laag_1" data-name="Laag 1" xmlns="http://www.w3.org/2000/svg" viewBox="0 0 283.5 283.5"><defs><style>.cls-1{fill:#fff;}.cls-2{fill:#70706f;}</style></defs><circle class="cls-1" cx="141.7" cy="141.7" r="137.9" transform="translate(-58.7 141.7) rotate(-45)"/><path class="cls-2" d="M141.7,7.7c74,0,134.1,60.1,134.1,134A134.2,134.2,0,0,1,141.7,275.8c-73.9,0-134-60.1-134-134.1a134.1,134.1,0,0,1,134-134m0-7.7C63.6,0,0,63.6,0,141.7S63.6,283.5,141.7,283.5s141.8-63.6,141.8-141.8S219.9,0,141.7,0Z"/><rect class="cls-2" x="56.8" y="54" width="82.8" height="82.82" rx="4.4"/><path class="cls-2" d="M222.3,146.7H148.2a4.3,4.3,0,0,0-4.3,4.3v74.1a4.4,4.4,0,0,0,4.3,4.4h74.1a4.4,4.4,0,0,0,4.4-4.4V151A4.4,4.4,0,0,0,222.3,146.7ZM218,220.8H152.6V155.4H218Z"/><path class="cls-2" d="M150.1,81.5a41.3,41.3,0,0,1,41.1,38.8l-9.2-9.2a4.4,4.4,0,1,0-6.2,6.2l17,16.9a4,4,0,0,0,3.1,1.3,3.9,3.9,0,0,0,3-1.3l16.5-16.4a4.4,4.4,0,1,0-6.2-6.2l-9.3,9.3a49.9,49.9,0,0,0-49.8-48.2,4.4,4.4,0,0,0,0,8.8Z"/><path class="cls-2" d="M134.3,185.5a41.1,41.1,0,0,1-49.8-26.6l11.3,6.4a4.3,4.3,0,0,0,4.3-7.5L79.3,145.9a4.6,4.6,0,0,0-3.4-.5,4.4,4.4,0,0,0-2.6,2.1L61.7,167.7a4.4,4.4,0,0,0,7.6,4.3l6.6-11.4A50,50,0,0,0,136.6,194a4.5,4.5,0,0,0,3.1-5.4A4.5,4.5,0,0,0,134.3,185.5Z"/></svg>