<svg id="Laag_1" data-name="Laag 1" xmlns="http://www.w3.org/2000/svg" viewBox="0 0 283.5 283.5"><defs><style>.cls-1{fill:#fff;}.cls-2{fill:#70706f;}.cls-3{fill:#71706f;}</style></defs><circle class="cls-1" cx="141.7" cy="141.7" r="137.9" transform="translate(-58.7 141.7) rotate(-45)"/><path class="cls-2" d="M141.7,7.7c74,0,134.1,60.1,134.1,134A134.2,134.2,0,0,1,141.7,275.8c-73.9,0-134-60.1-134-134.1a134.1,134.1,0,0,1,134-134m0-7.7C63.6,0,0,63.6,0,141.7S63.6,283.5,141.7,283.5s141.8-63.6,141.8-141.8S219.9,0,141.7,0Z"/><path class="cls-3" d="M223.5,205.7l-.9-6.2a40.1,40.1,0,0,0-3.3-11c-.3-.6-.5-1.2-.8-1.7l-.2-.4-1.2-2.2-1.1-1.6-.2-.3c-4.4-6.6-10.3-11.3-15.9-13.1a35.1,35.1,0,0,0-9.2-2.8l-34.3-6h-1.3c16.9-5.6,22.2-21.5,22.2-40.3,0-23.4-12.1-42.4-35.6-42.4s-35.6,19-35.6,42.4c0,18.8,5.4,34.7,22.2,40.3h-1.2l-34.3,6a34,34,0,0,0-9.2,2.8c-5.6,1.8-11.5,6.5-15.9,13.1l-.2.3-1.1,1.6-1.3,2.2c0,.2-.1.3-.1.4a8.9,8.9,0,0,0-.8,1.7,40.3,40.3,0,0,0-3.4,11l-.9,6.2Z"/></svg>