<svg id="Laag_1" data-name="Laag 1" xmlns="http://www.w3.org/2000/svg" viewBox="0 0 283.5 283.5"><defs><style>.cls-1{fill:#fff;}.cls-2,.cls-3{fill:#70706f;}.cls-3{fill-rule:evenodd;}</style></defs><circle class="cls-1" cx="141.7" cy="141.7" r="137.9" transform="translate(-58.7 141.7) rotate(-45)"/><path class="cls-2" d="M141.7,7.7c74,0,134.1,60.1,134.1,134A134.2,134.2,0,0,1,141.7,275.8c-73.9,0-134-60.1-134-134.1a134.1,134.1,0,0,1,134-134m0-7.7C63.6,0,0,63.6,0,141.7S63.6,283.5,141.7,283.5s141.8-63.6,141.8-141.8S219.9,0,141.7,0Z"/><path class="cls-3" d="M221,134.1,201.3,59.4a7.1,7.1,0,0,0-6.9-5.7H87.3A7,7,0,0,0,80.6,59L62.3,134.3a6.9,6.9,0,0,0-.8,3.2v85.3a7.1,7.1,0,0,0,7,7H215a7,7,0,0,0,6.9-7V137.5A6.7,6.7,0,0,0,221,134.1Zm-22.7,80.7H85.2V200.9h44.9l-.2-20.1H118.1L141.5,154l23.9,26.6H153.6v20.3h44.6Zm-39.4-84.3v13.9H124.6V130.5H77.5L92.8,67.6h96.3l16.6,62.9Z"/></svg>