<svg id="Laag_1" data-name="Laag 1" xmlns="http://www.w3.org/2000/svg" viewBox="0 0 283.5 283.5"><defs><style>.cls-1{fill:#fff;}.cls-2{fill:#70706f;}</style></defs><circle class="cls-1" cx="141.7" cy="141.7" r="137.9" transform="translate(-58.7 141.7) rotate(-45)"/><path class="cls-2" d="M141.7,7.7c74,0,134.1,60.1,134.1,134A134.2,134.2,0,0,1,141.7,275.8c-73.9,0-134-60.1-134-134.1a134.1,134.1,0,0,1,134-134m0-7.7C63.6,0,0,63.6,0,141.7S63.6,283.5,141.7,283.5s141.8-63.6,141.8-141.8S219.9,0,141.7,0Z"/><path class="cls-2" d="M183.4,54.6c-31.5,0-58.1,17.4-66.2,41.1a76.3,76.3,0,0,0-17.5-2c-35.4,0-64,23.1-64,51.5,0,17.9,11.5,33.7,28.8,42.9v36.5l24.2-28.9a67.1,67.1,0,0,0,11,.9c27.5,0,51-13.8,60.1-33.4a78.8,78.8,0,0,0,23.6,3.5,74.7,74.7,0,0,0,9.2-.6L215.1,193a4.4,4.4,0,0,0,3.5,1.6,3.9,3.9,0,0,0,1.5-.2,4.6,4.6,0,0,0,3-4.3V156.3c18.2-10.5,28.9-27.4,28.9-45.7C252,79.8,221.2,54.6,183.4,54.6Zm33,95a4.7,4.7,0,0,0-2.4,4v24l-16-19.2a4.6,4.6,0,0,0-3.5-1.7h-.7a72.7,72.7,0,0,1-31.1-2.1,38,38,0,0,0,1.1-9.5c0-20.9-15.5-38.9-37.8-47,6.9-19.8,30-34.5,57.4-34.5,32.8,0,59.5,21.1,59.5,46.9C242.9,126.3,233,140.8,216.4,149.6Z"/></svg>