<svg id="Laag_1" data-name="Laag 1" xmlns="http://www.w3.org/2000/svg" viewBox="0 0 283.5 283.5"><defs><style>.cls-1{fill:#fff;}.cls-2{fill:#70706f;}</style></defs><circle class="cls-1" cx="141.2" cy="141.5" r="137.9" transform="translate(-58.7 141.3) rotate(-45)"/><path class="cls-2" d="M141.2,7.5c74,0,134.1,60.1,134.1,134A134.2,134.2,0,0,1,141.2,275.6c-73.9,0-134-60.1-134-134.1a134.1,134.1,0,0,1,134-134m0-7.7C63.1-.2-.5,63.4-.5,141.5S63.1,283.3,141.2,283.3,283,219.7,283,141.5,219.4-.2,141.2-.2Z"/><path class="cls-2" d="M214.5,124H156V68.3a17.6,17.6,0,1,0-35.1,0V124H68a17.6,17.6,0,1,0,0,35.1h52.9v55.7a17.6,17.6,0,1,0,35.1,0V159.1h58.5a17.6,17.6,0,1,0,0-35.1Z"/></svg>