<svg id="Laag_1" data-name="Laag 1" xmlns="http://www.w3.org/2000/svg" viewBox="0 0 283.5 283.5"><defs><style>.cls-1{fill:#fff;}.cls-2{fill:#70706f;}</style></defs><circle class="cls-1" cx="141.7" cy="141.7" r="137.9" transform="translate(-58.7 141.7) rotate(-45)"/><path class="cls-2" d="M141.7,7.7c74,0,134.1,60.1,134.1,134A134.2,134.2,0,0,1,141.7,275.8c-73.9,0-134-60.1-134-134.1a134.1,134.1,0,0,1,134-134m0-7.7C63.6,0,0,63.6,0,141.7S63.6,283.5,141.7,283.5s141.8-63.6,141.8-141.8S219.9,0,141.7,0Z"/><path class="cls-2" d="M196.5,58.9a6.8,6.8,0,0,0-6.8,6.8,6.9,6.9,0,0,0,6.8,6.9h18.1V92.8a6.9,6.9,0,0,0,6.9,6.8,6.8,6.8,0,0,0,6.8-6.8V58.9Zm2.8,121.5V116.2a7.9,7.9,0,0,0-7.9-7.9h-23l-2.3-6.7a6,6,0,0,0-5.6-3.9H125.8a5.9,5.9,0,0,0-5.6,3.9l-2.3,6.7H94.8a7.9,7.9,0,0,0-7.8,7.9v64.2a7.8,7.8,0,0,0,7.8,7.9h96.6A7.9,7.9,0,0,0,199.3,180.4Zm-55.5-2.2a29.9,29.9,0,1,1,29.9-29.9A29.9,29.9,0,0,1,143.8,178.2ZM62,99.6a6.8,6.8,0,0,0,6.8-6.8V72.6H86.9a6.9,6.9,0,0,0,6.9-6.9,6.8,6.8,0,0,0-6.9-6.8H55.1V92.8A6.9,6.9,0,0,0,62,99.6ZM86.9,210.9H68.8V190.7a6.7,6.7,0,0,0-6.8-6.8,6.8,6.8,0,0,0-6.9,6.8v33.9H86.9a6.9,6.9,0,1,0,0-13.7Zm56.7-87.5a25.2,25.2,0,1,0,25.1,25.1A25.1,25.1,0,0,0,143.6,123.4Zm.2,36.3a11.4,11.4,0,1,1,11.4-11.4A11.4,11.4,0,0,1,143.8,159.7Zm77.7,24.2a6.8,6.8,0,0,0-6.9,6.8v20.2H196.5a6.9,6.9,0,0,0,0,13.7h31.8V190.7A6.7,6.7,0,0,0,221.5,183.9Z"/></svg>