<svg id="Laag_1" data-name="Laag 1" xmlns="http://www.w3.org/2000/svg" viewBox="0 0 283.5 283.5"><defs><style>.cls-1{fill:#fff;}.cls-2{fill:#70706f;}</style></defs><circle class="cls-1" cx="141.7" cy="141.7" r="137.9" transform="translate(-58.7 141.7) rotate(-45)"/><path class="cls-2" d="M141.7,7.7c74,0,134.1,60.1,134.1,134A134.2,134.2,0,0,1,141.7,275.8c-73.9,0-134-60.1-134-134.1a134.1,134.1,0,0,1,134-134m0-7.7C63.6,0,0,63.6,0,141.7S63.6,283.5,141.7,283.5s141.8-63.6,141.8-141.8S219.9,0,141.7,0Z"/><path class="cls-2" d="M217.6,142.5H65.8a20.9,20.9,0,0,0,0,41.7H217.6a20.9,20.9,0,1,0,0-41.7ZM67.3,175.7a12.4,12.4,0,0,1,0-24.7,12.4,12.4,0,1,1,0,24.7Zm49.9,0a12.4,12.4,0,1,1,12.3-12.3A12.4,12.4,0,0,1,117.2,175.7Zm49.8,0a12.4,12.4,0,1,1,12.3-12.3A12.3,12.3,0,0,1,167,175.7Zm49.8,0a12.4,12.4,0,1,1,12.3-12.3A12.3,12.3,0,0,1,216.8,175.7Z"/><rect class="cls-2" x="81.9" y="99.2" width="30.2" height="38.79" rx="5.7"/><rect class="cls-2" x="139.6" y="99.2" width="30.2" height="38.79" rx="5.7"/><rect class="cls-2" x="197.2" y="99.2" width="30.2" height="38.79" rx="5.7"/></svg>