<svg id="Laag_1" data-name="Laag 1" xmlns="http://www.w3.org/2000/svg" viewBox="0 0 283.5 283.5"><defs><style>.cls-1{fill:#fff;}.cls-2{fill:#70706f;}</style></defs><circle class="cls-1" cx="141.7" cy="141.7" r="137.9" transform="translate(-58.7 141.7) rotate(-45)"/><path class="cls-2" d="M141.7,7.7c74,0,134.1,60.1,134.1,134A134.2,134.2,0,0,1,141.7,275.8c-73.9,0-134-60.1-134-134.1a134.1,134.1,0,0,1,134-134m0-7.7C63.6,0,0,63.6,0,141.7S63.6,283.5,141.7,283.5s141.8-63.6,141.8-141.8S219.9,0,141.7,0Z"/><path class="cls-2" d="M206.8,184.8H72.7a18.5,18.5,0,1,0,0,36.9H206.8a18.5,18.5,0,0,0,0-36.9ZM74,214.2a10.9,10.9,0,1,1,10.9-10.9A10.9,10.9,0,0,1,74,214.2Zm44,0a10.9,10.9,0,1,1,10.9-10.9A10.9,10.9,0,0,1,118,214.2Zm44,0a10.9,10.9,0,1,1,10.9-10.9A10.8,10.8,0,0,1,162,214.2Zm44.1,0A10.9,10.9,0,1,1,217,203.3,10.9,10.9,0,0,1,206.1,214.2Z"/><rect class="cls-2" x="86.9" y="146.6" width="26.7" height="34.27" rx="5"/><rect class="cls-2" x="137.8" y="146.6" width="26.7" height="34.27" rx="5"/><rect class="cls-2" x="188.7" y="146.6" width="26.7" height="34.27" rx="5"/><path class="cls-2" d="M226.5,61.7H57a2.9,2.9,0,0,0-2.8,2.8V77.2A2.8,2.8,0,0,0,57,79.9h81v3.4a3.3,3.3,0,0,0,3.3,3.3h7.3v16.8l-20.4,15.4a2.5,2.5,0,0,0-.8,2.9l7.9,19.3a2.5,2.5,0,0,0,2.3,1.6h6.9a2.5,2.5,0,0,0,0-4.9h-5.3l-6.6-16.1,18.5-13.9,18.4,13.9-6.6,16.1h-5.2a2.5,2.5,0,1,0,0,4.9h6.9a2.4,2.4,0,0,0,2.2-1.6l7.9-19.3a2.5,2.5,0,0,0-.8-2.9l-20.4-15.4V86.7H161a3.3,3.3,0,0,0,3.3-3.3V80h62.2a2.7,2.7,0,0,0,2.7-2.7V64.5A2.8,2.8,0,0,0,226.5,61.7Z"/></svg>