<svg id="Laag_1" data-name="Laag 1" xmlns="http://www.w3.org/2000/svg" viewBox="0 0 283.5 283.5"><defs><style>.cls-1{fill:#fff;}.cls-2{fill:#70706f;}</style></defs><circle class="cls-1" cx="141.7" cy="141.7" r="137.9" transform="translate(-58.7 141.7) rotate(-45)"/><path class="cls-2" d="M141.7,7.7c74,0,134.1,60.1,134.1,134A134.2,134.2,0,0,1,141.7,275.8c-73.9,0-134-60.1-134-134.1a134.1,134.1,0,0,1,134-134m0-7.7C63.6,0,0,63.6,0,141.7S63.6,283.5,141.7,283.5s141.8-63.6,141.8-141.8S219.9,0,141.7,0Z"/><path class="cls-2" d="M151.8,174.1c34.9-4.1,39.1-28.7,40.4-60l7.4-8.9L184.2,89.3c-5.3-29.9-19.4-50.4-51.4-50.4-37.5,0-56.9,30.4-56.9,67.9A67.8,67.8,0,0,0,107.3,164l4,13.1C86,188.8,70.1,216.5,79.8,244.6H209.3C197.9,213.3,176.4,183.3,151.8,174.1Z"/></svg>