<svg id="Laag_1" data-name="Laag 1" xmlns="http://www.w3.org/2000/svg" viewBox="0 0 283.5 283.5"><defs><style>.cls-1{fill:#fff;}.cls-2{fill:#70706f;}</style></defs><circle class="cls-1" cx="141.7" cy="141.7" r="137.9" transform="translate(-58.7 141.7) rotate(-45)"/><path class="cls-2" d="M141.7,7.7c74,0,134.1,60.1,134.1,134A134.2,134.2,0,0,1,141.7,275.8c-73.9,0-134-60.1-134-134.1a134.1,134.1,0,0,1,134-134m0-7.7C63.6,0,0,63.6,0,141.7S63.6,283.5,141.7,283.5s141.8-63.6,141.8-141.8S219.9,0,141.7,0Z"/><path class="cls-2" d="M117.6,200a11.3,11.3,0,0,1-7.8-19.4L150,141.9l-40.2-38.7A11.2,11.2,0,1,1,125.4,87L174,133.8a11.4,11.4,0,0,1,3.5,8.1A11.2,11.2,0,0,1,174,150l-48.6,46.8A11.3,11.3,0,0,1,117.6,200Z"/></svg>