<svg id="Laag_1" data-name="Laag 1" xmlns="http://www.w3.org/2000/svg" viewBox="0 0 283.5 283.5"><defs><style>.cls-1{fill:#fff;}.cls-2{fill:#70706f;}</style></defs><circle class="cls-1" cx="141.7" cy="141.7" r="137.9" transform="translate(-58.7 141.7) rotate(-45)"/><path class="cls-2" d="M141.7,7.7c74,0,134.1,60.1,134.1,134A134.2,134.2,0,0,1,141.7,275.8c-73.9,0-134-60.1-134-134.1a134.1,134.1,0,0,1,134-134m0-7.7C63.6,0,0,63.6,0,141.7S63.6,283.5,141.7,283.5s141.8-63.6,141.8-141.8S219.9,0,141.7,0Z"/><path class="cls-2" d="M216,123.2H202a53.1,53.1,0,0,0-2-5.6c-.7-1.8-1.6-3.6-2.5-5.4l9.8-9.8h0a5.7,5.7,0,0,0,0-8.2L189.4,76.2h-.1a5.9,5.9,0,0,0-8.2,0l4.1,4.1-4.1-4.1L171.3,86c-1.8-.9-3.6-1.8-5.4-2.5a53.7,53.7,0,0,0-5.6-2.1V67.5a5.8,5.8,0,0,0-5.8-5.8H129a5.8,5.8,0,0,0-5.8,5.8V81.4a53.7,53.7,0,0,0-5.6,2.1c-1.8.7-3.6,1.6-5.4,2.5l-9.8-9.8h-.1a5.9,5.9,0,0,0-8.2,0h0l-17.9,18h-.1a5.9,5.9,0,0,0,0,8.2h0l9.9,9.9c-.9,1.8-1.8,3.6-2.5,5.4a53.7,53.7,0,0,0-2.1,5.6H67.5a5.8,5.8,0,0,0-5.8,5.8v25.5a5.8,5.8,0,0,0,5.8,5.8H81.4a53.7,53.7,0,0,0,2.1,5.6c.7,1.8,1.6,3.6,2.5,5.4l-9.8,9.8h-.1a5.9,5.9,0,0,0,0,8.2l18,18h0a5.7,5.7,0,0,0,8.2,0l-4.1-4.1,4.1,4.1,9.9-9.8c1.8.9,3.6,1.8,5.4,2.5a53.1,53.1,0,0,0,5.6,2v14a5.8,5.8,0,0,0,5.8,5.8h25.5a5.8,5.8,0,0,0,5.8-5.8V202a53.1,53.1,0,0,0,5.6-2c1.8-.7,3.6-1.6,5.4-2.5l9.8,9.8h0a5.7,5.7,0,0,0,8.2,0h0l18-17.9h0a5.7,5.7,0,0,0,0-8.2h0l-9.8-9.8c.9-1.8,1.8-3.6,2.5-5.4a53.1,53.1,0,0,0,2-5.6h14a5.8,5.8,0,0,0,5.8-5.8V129A5.8,5.8,0,0,0,216,123.2Zm-52.4,40.4a30.9,30.9,0,0,1-43.8,0,31,31,0,1,1,52.9-21.9A30.4,30.4,0,0,1,163.6,163.6Z"/></svg>