<?xml version="1.0" encoding="UTF-8"?><svg id="Laag_1" xmlns="http://www.w3.org/2000/svg" viewBox="0 0 283.5 283.5"><defs><style>.cls-1{fill:#e71d73;}.cls-2{fill:#fff;}.cls-3{fill:#1d71b8;}</style></defs><circle class="cls-3" cx="141.9" cy="142.8" r="125.2"/><path class="cls-1" d="M46,245.9c20.6,19,46,31,72.6,35.5,35.8,6,73.9-1.7,105.7-24.4,30.8-22,51.2-54.7,57.4-92,6.2-37.3-2.5-74.9-24.5-105.7C235.3,28.5,202.6,8,165.3,1.8c-37.3-6.2-74.9,2.5-105.7,24.5C28.8,48.3,8.4,80.9,2.1,118.3c-6.2,37.3,2.5,74.9,24.5,105.7,.5,.6,1.1,1.1,1.5,1.7m226.7-65.3c-5,30.2-21.5,56.5-46.4,74.3-51.4,36.7-123,24.7-159.7-26.6-17.8-24.9-24.8-55.2-19.7-85.4,5-30.2,21.5-56.5,46.4-74.3,24.9-17.8,55.2-24.8,85.4-19.8,30.2,5,56.5,21.5,74.3,46.4,17.8,24.9,24.8,55.2,19.7,85.3Z"/><path class="cls-2" d="M91.3,204.9V75.8h41.6c11.4,0,21.6,2.6,30.7,7.8,9.1,5.2,16.2,12.5,21.3,21.9,5.1,9.4,7.7,20,7.8,31.7v5.9c0,11.8-2.5,22.4-7.5,31.8-5,9.4-12,16.7-21.1,22-9.1,5.3-19.2,8-30.4,8h-42.4Zm31.1-105v81.1h10.8c8.9,0,15.8-3.2,20.6-9.5,4.8-6.3,7.2-15.8,7.2-28.3v-5.6c0-12.5-2.4-21.9-7.2-28.2-4.8-6.3-11.8-9.5-20.9-9.5h-10.5Z"/></svg>