<svg xmlns="http://www.w3.org/2000/svg" width="39.416" height="39.412" viewBox="0 0 39.416 39.412">
  <g id="Group_3357" data-name="Group 3357" transform="translate(-12.287 -15.639)">
    <circle id="Ellipse_2087" data-name="Ellipse 2087" cx="17.426" cy="17.426" r="17.426" transform="translate(14.526 18.092)" fill="#1d71b8"/>
    <path id="Path_3774" data-name="Path 3774" d="M18.136,46.354a19.362,19.362,0,0,0,10.1,4.923,19.71,19.71,0,1,0-12.8-8.007.992.992,0,0,0,.214.255M47.162,34.45A15.642,15.642,0,0,1,40.7,44.769a15.965,15.965,0,0,1-22.223-3.724,15.8,15.8,0,0,1-2.739-11.863A15.935,15.935,0,0,1,34.06,16.124a15.633,15.633,0,0,1,10.319,6.467A15.808,15.808,0,0,1,47.121,34.45Z" transform="translate(0.502 3.508)" fill="#e71d73"/>
    <path id="Path_3775" data-name="Path 3775" d="M24.641,28.081a1.8,1.8,0,0,0-.686-1.5A8.8,8.8,0,0,0,21.6,25.469a17.971,17.971,0,0,1-2.739-1.113c-2.312-1.158-3.47-2.7-3.47-4.71s.3-1.885.858-2.612a5.454,5.454,0,0,1,2.439-1.757,9.577,9.577,0,0,1,3.556-.641,8.2,8.2,0,0,1,3.466.686,5.742,5.742,0,0,1,2.4,1.967,5.277,5.277,0,0,1,.858,2.915H24.641a2.185,2.185,0,0,0-.686-1.716,2.7,2.7,0,0,0-1.8-.6,3.114,3.114,0,0,0-1.844.517,1.618,1.618,0,0,0-.682,1.281,1.543,1.543,0,0,0,.727,1.244,9.027,9.027,0,0,0,2.612,1.154,13.712,13.712,0,0,1,3.039,1.285,5.157,5.157,0,0,1,2.911,4.624,3.95,3.95,0,0,1-1.753,3.683A7.955,7.955,0,0,1,22.284,33a7.849,7.849,0,0,1-3.938-.772,5.845,5.845,0,0,1-2.657-2.139,5.571,5.571,0,0,1-.9-3.125h4.328a2.928,2.928,0,0,0,.727,2.139,3.459,3.459,0,0,0,2.439.686A2.128,2.128,0,0,0,24,29.321a1.475,1.475,0,0,0,.645-1.281Z" transform="translate(9.839 11.29)" fill="#fff"/>
  </g>
</svg>
