<svg id="Laag_1" data-name="Laag 1" xmlns="http://www.w3.org/2000/svg" viewBox="0 0 283.5 283.5"><defs><style>.cls-1{fill:#fff;}.cls-2{fill:#70706f;}</style></defs><circle class="cls-1" cx="141.7" cy="141.7" r="137.9" transform="translate(-58.7 141.7) rotate(-45)"/><path class="cls-2" d="M141.7,7.7c74,0,134.1,60.1,134.1,134A134.2,134.2,0,0,1,141.7,275.8c-73.9,0-134-60.1-134-134.1a134.1,134.1,0,0,1,134-134m0-7.7C63.6,0,0,63.6,0,141.7S63.6,283.5,141.7,283.5s141.8-63.6,141.8-141.8S219.9,0,141.7,0Z"/><path class="cls-2" d="M212.7,165.6V148.4a5,5,0,0,0-4.9-5H146.9v-12a27.6,27.6,0,1,0-9.8,0v12H75.7a5,5,0,0,0-5,5v17.2a21.1,21.1,0,1,0,9.9,0V153.3h56.5v12.3a21,21,0,1,0,9.8,0V153.3h56v12.3a21,21,0,1,0,9.8,0ZM86.8,185.9a11.2,11.2,0,1,1-11.1-11.1A11.2,11.2,0,0,1,86.8,185.9Zm66.3,0A11.1,11.1,0,1,1,142,174.8,11.1,11.1,0,0,1,153.1,185.9ZM142,122a17.8,17.8,0,1,1,17.8-17.8A17.8,17.8,0,0,1,142,122Zm65.8,75.1a11.2,11.2,0,1,1,11.1-11.2A11.1,11.1,0,0,1,207.8,197.1Z"/></svg>