<svg id="Laag_1" data-name="Laag 1" xmlns="http://www.w3.org/2000/svg" viewBox="0 0 283.5 283.5"><defs><style>.cls-1{fill:#fff;}.cls-2{fill:#70706f;}</style></defs><circle class="cls-1" cx="141.7" cy="141.7" r="137.9" transform="translate(-58.7 141.7) rotate(-45)"/><path class="cls-2" d="M141.7,7.7c74,0,134.1,60.1,134.1,134A134.2,134.2,0,0,1,141.7,275.8c-73.9,0-134-60.1-134-134.1a134.1,134.1,0,0,1,134-134m0-7.7C63.6,0,0,63.6,0,141.7S63.6,283.5,141.7,283.5s141.8-63.6,141.8-141.8S219.9,0,141.7,0Z"/><path class="cls-2" d="M200.9,158.7l.5-1.2a3.8,3.8,0,0,0-2.1-5,3.7,3.7,0,0,0-3.8.5V73.2a9.3,9.3,0,0,0-9.3-9.3H88.1a9.3,9.3,0,0,0-9.3,9.3v129a9.3,9.3,0,0,0,9.3,9.3h40.3a47.1,47.1,0,1,0,72.5-52.8Zm-27.8,79.8a41.8,41.8,0,1,1,0-83.6,40.6,40.6,0,0,1,19,4.8l-18.3,44.1-8.5-21.1a3.8,3.8,0,1,0-7.1,2.8l12,30a3.9,3.9,0,0,0,3.6,2.5h0a4.1,4.1,0,0,0,3.6-2.4L198.7,164a41.4,41.4,0,0,1,16.2,32.7A41.8,41.8,0,0,1,173.1,238.5Z"/></svg>