<svg id="Laag_1" data-name="Laag 1" xmlns="http://www.w3.org/2000/svg" viewBox="0 0 283.5 283.5"><defs><style>.cls-1{fill:#fff;}.cls-2{fill:#70706f;}</style></defs><circle class="cls-1" cx="141.7" cy="141.7" r="137.9" transform="translate(-58.7 141.7) rotate(-45)"/><path class="cls-2" d="M141.7,7.7c74,0,134.1,60.1,134.1,134A134.2,134.2,0,0,1,141.7,275.8c-73.9,0-134-60.1-134-134.1a134.1,134.1,0,0,1,134-134m0-7.7C63.6,0,0,63.6,0,141.7S63.6,283.5,141.7,283.5s141.8-63.6,141.8-141.8S219.9,0,141.7,0Z"/><path class="cls-2" d="M166.4,141.7A24.7,24.7,0,0,0,148.6,118V102.3a24.6,24.6,0,0,0,0-47.3V33.8H134.9V55a24.6,24.6,0,0,0,0,47.3V118a24.7,24.7,0,0,0,0,47.4V181a24.7,24.7,0,0,0,0,47.4v21.2h13.7V228.4a24.7,24.7,0,0,0,0-47.4V165.4A24.8,24.8,0,0,0,166.4,141.7Zm-35.7-63a11,11,0,1,1,11,11A11.1,11.1,0,0,1,130.7,78.7Zm0,63a11,11,0,1,1,11,11A11,11,0,0,1,130.7,141.7Zm22,63a11,11,0,1,1-11-11A11,11,0,0,1,152.7,204.7Z"/></svg>