<svg id="Laag_1" data-name="Laag 1" xmlns="http://www.w3.org/2000/svg" viewBox="0 0 283.5 283.5"><defs><style>.cls-1{fill:#fff;}.cls-2{fill:#70706f;}</style></defs><circle class="cls-1" cx="141.7" cy="141.7" r="137.9" transform="translate(-58.7 141.7) rotate(-45)"/><path class="cls-2" d="M141.7,7.7c74,0,134.1,60.1,134.1,134A134.2,134.2,0,0,1,141.7,275.8c-73.9,0-134-60.1-134-134.1a134.1,134.1,0,0,1,134-134m0-7.7C63.6,0,0,63.6,0,141.7S63.6,283.5,141.7,283.5s141.8-63.6,141.8-141.8S219.9,0,141.7,0Z"/><path class="cls-2" d="M229.4,144.4a29,29,0,0,0-26.6,12l-7.9-4,33-42.4c1.5-2,.8-3.8-1.7-4L113.3,94.3a6.1,6.1,0,0,0-5.9,3.8l-3.1,9-23.9-12v-.4a8.9,8.9,0,0,0-8-9.8L38,81.3a8.9,8.9,0,0,0-9.9,8,9,9,0,0,0,8,9.9l34.5,3.6h.9a10.6,10.6,0,0,0,3.1-.5l27.6,13.8L86.9,163a4.7,4.7,0,0,0,1.8,5.2,4.5,4.5,0,0,0,2.5.7,4.5,4.5,0,0,0,2.9-1l41.6-35.1,63.1,31.6a28.5,28.5,0,0,0-1.2,5.8,29,29,0,1,0,31.8-25.8Zm-129,6.4,9.9-30.7,16.6,8.3Z"/></svg>