<svg id="Laag_1" data-name="Laag 1" xmlns="http://www.w3.org/2000/svg" viewBox="0 0 283.5 283.5"><defs><style>.cls-1{fill:#fff;}.cls-2{fill:#70706f;}.cls-3{fill:#71706f;}</style></defs><circle class="cls-1" cx="141.7" cy="141.7" r="137.9" transform="translate(-58.7 141.7) rotate(-45)"/><path class="cls-2" d="M141.7,7.7c74,0,134.1,60.1,134.1,134A134.2,134.2,0,0,1,141.7,275.8c-73.9,0-134-60.1-134-134.1a134.1,134.1,0,0,1,134-134m0-7.7C63.6,0,0,63.6,0,141.7S63.6,283.5,141.7,283.5s141.8-63.6,141.8-141.8S219.9,0,141.7,0Z"/><path class="cls-3" d="M245,184.1a28.2,28.2,0,0,0-2.5-8.1,6.1,6.1,0,0,0-.5-1.2l-.2-.3c-.2-.5-.6-1-.9-1.6l-.8-1.2v-.2c-3.3-4.8-7.6-8.3-11.7-9.6a24.9,24.9,0,0,0-6.7-2.1l-25.2-4.4h-.9c12.3-4.1,16.2-15.8,16.2-29.6,0-17.2-8.9-31.1-26.1-31.1s-26.1,13.9-26.1,31.1c0,13.8,3.9,25.5,16.3,29.6h-.9l-25.2,4.4a25.6,25.6,0,0,0-6.8,2.1l-1.2.5-1.2-.5a24.9,24.9,0,0,0-6.7-2.1l-25.2-4.4h-.9c12.3-4.1,16.3-15.8,16.3-29.6,0-17.2-9-31.1-26.2-31.1s-26.1,13.9-26.1,31.1c0,13.8,3.9,25.5,16.3,29.6h-.9l-25.2,4.4a25.6,25.6,0,0,0-6.8,2.1c-4,1.3-8.4,4.8-11.6,9.6l-.2.2-.7,1.2-1,1.6c0,.1-.1.2-.1.3l-.6,1.2a31.6,31.6,0,0,0-2.4,8.1l-.7,4.6H245.7Z"/></svg>