<svg id="Laag_1" data-name="Laag 1" xmlns="http://www.w3.org/2000/svg" viewBox="0 0 283.5 283.5"><defs><style>.cls-1{fill:#fff;}.cls-2{fill:#70706f;}</style></defs><circle class="cls-1" cx="141.7" cy="141.7" r="137.9" transform="translate(-58.7 141.7) rotate(-45)"/><path class="cls-2" d="M141.7,7.7c74,0,134.1,60.1,134.1,134A134.2,134.2,0,0,1,141.7,275.8c-73.9,0-134-60.1-134-134.1a134.1,134.1,0,0,1,134-134m0-7.7C63.6,0,0,63.6,0,141.7S63.6,283.5,141.7,283.5s141.8-63.6,141.8-141.8S219.9,0,141.7,0Z"/><path class="cls-2" d="M117.5,99a6.9,6.9,0,0,0,4.8-2l12.6-12.6v72.5a6.9,6.9,0,1,0,13.7,0V83.7l12.6,12.6a6.8,6.8,0,1,0,9.6-9.6l-23.9-24a7.2,7.2,0,0,0-9.7,0L112.6,87.3a7,7,0,0,0,0,9.7A7.1,7.1,0,0,0,117.5,99Zm84.5,5.7H167.2a4.5,4.5,0,0,0-4.5,4.6,4.6,4.6,0,0,0,4.5,4.6h30.2v99.8H86.1V113.9h30.6a4.6,4.6,0,0,0,4.6-4.6,4.5,4.5,0,0,0-4.6-4.6H81.5a4.6,4.6,0,0,0-4.6,4.6V218.2a4.6,4.6,0,0,0,4.6,4.6H202a4.5,4.5,0,0,0,4.5-4.6V109.3A4.5,4.5,0,0,0,202,104.7Z"/></svg>