<svg id="Laag_1" data-name="Laag 1" xmlns="http://www.w3.org/2000/svg" viewBox="0 0 283.5 283.5"><defs><style>.cls-1{fill:#fff;}.cls-2{fill:#70706f;}</style></defs><circle class="cls-1" cx="141.7" cy="141.7" r="137.9" transform="translate(-58.7 141.7) rotate(-45)"/><path class="cls-2" d="M141.7,7.7c74,0,134.1,60.1,134.1,134A134.2,134.2,0,0,1,141.7,275.8c-73.9,0-134-60.1-134-134.1a134.1,134.1,0,0,1,134-134m0-7.7C63.6,0,0,63.6,0,141.7S63.6,283.5,141.7,283.5s141.8-63.6,141.8-141.8S219.9,0,141.7,0Z"/><path class="cls-2" d="M167.2,176.1h-.1a34.6,34.6,0,0,0-8.3-5.6,33,33,0,0,0-25-1.4l3.2,12.2a20.7,20.7,0,0,1,27.7,24.1,27,27,0,0,1-1.4,4h0a20.9,20.9,0,0,1-13.5,11.1,27,27,0,0,1-4.1.6h0a20.7,20.7,0,0,1-21.2-25.6,20.3,20.3,0,0,1,1.4-3.9l7.6,3.6-2.7-10.2-3.4-13h0l-21.8,10,9,4.2a21.4,21.4,0,0,0-1.6,3.9,33.2,33.2,0,0,0,42.9,41.6h0a33.2,33.2,0,0,0,21.9-32.9A32.7,32.7,0,0,0,167.2,176.1Zm69.9,22.5-1.1-7.2a45.9,45.9,0,0,0-3.8-12.9c-.3-.6-.6-1.3-1-2l-.2-.3a21.5,21.5,0,0,0-1.4-2.6l-1.3-2-.2-.3c-5.2-7.6-12-13.2-18.5-15.3a42.3,42.3,0,0,0-10.8-3.2l-40-7h-1.4c19.6-6.6,25.8-25.1,25.8-47,0-27.3-14.1-49.5-41.5-49.5s-41.5,22.2-41.5,49.5c0,21.9,6.2,40.4,25.9,47h-1.4l-40.1,7A41.5,41.5,0,0,0,73.9,156c-6.5,2.1-13.4,7.7-18.5,15.3l-.3.3-1.2,2-1.5,2.6c0,.1-.1.2-.2.3l-.9,2a49.6,49.6,0,0,0-3.9,12.9l-1.1,7.2H95.9v-.8a45.9,45.9,0,1,1,91.7,0c0,.3-.1.5-.1.8Z"/></svg>