<svg id="Group_3361" data-name="Group 3361" xmlns="http://www.w3.org/2000/svg" width="38.667" height="38.668" viewBox="0 0 38.667 38.668">
  <g id="Group_2073" data-name="Group 2073">
    <circle id="Ellipse_1290" data-name="Ellipse 1290" cx="18.065" cy="18.065" r="18.065" transform="translate(1.27 1.268)" fill="#fff"/>
    <path id="Path_2161" data-name="Path 2161" d="M604.1,274.654a19.334,19.334,0,1,1,19.332-19.336A19.356,19.356,0,0,1,604.1,274.654Zm0-36.13A16.8,16.8,0,1,0,620.9,255.319,16.815,16.815,0,0,0,604.1,238.525Z" transform="translate(-584.766 -235.987)" fill="#fff"/>
  </g>
  <path id="Path_3776" data-name="Path 3776" d="M598.027,237.911A11.386,11.386,0,1,0,609.415,249.3,11.4,11.4,0,0,0,598.027,237.911ZM589.664,249.3a8.352,8.352,0,0,1,13.108-6.88L591.151,254.04A8.3,8.3,0,0,1,589.664,249.3Zm8.362,8.363a8.327,8.327,0,0,1-4.741-1.482l11.622-11.622a8.349,8.349,0,0,1-6.88,13.1Z" transform="translate(-578.695 -229.963)" fill="#6f6f6e"/>
</svg>
