<svg id="Laag_1" data-name="Laag 1" xmlns="http://www.w3.org/2000/svg" viewBox="0 0 283.5 283.5"><defs><style>.cls-1{fill:#fff;}.cls-2{fill:#70706f;}</style></defs><circle class="cls-1" cx="141.7" cy="141.7" r="137.9" transform="translate(-58.7 141.7) rotate(-45)"/><path class="cls-2" d="M141.7,7.7c74,0,134.1,60.1,134.1,134A134.2,134.2,0,0,1,141.7,275.8c-73.9,0-134-60.1-134-134.1a134.1,134.1,0,0,1,134-134m0-7.7C63.6,0,0,63.6,0,141.7S63.6,283.5,141.7,283.5s141.8-63.6,141.8-141.8S219.9,0,141.7,0Z"/><path class="cls-2" d="M141.7,167.9a5.1,5.1,0,0,0,0,10.2,5.1,5.1,0,1,0,0-10.2Zm0-17.1a5.1,5.1,0,0,0,0,10.1,5.1,5.1,0,1,0,0-10.1Zm19.8-18.6,19.8-16.1a18.9,18.9,0,0,0,7.1-14.8V64.6H190a5,5,0,0,0,5-5v-5H88.4v5a5,5,0,0,0,5,5h1.7v36.7a18.9,18.9,0,0,0,7.1,14.8L122,132.2a2.7,2.7,0,0,1,1.1,2.2v14.7a2.9,2.9,0,0,1-1.1,2.2l-19.8,16a19.2,19.2,0,0,0-7.1,14.9v36.7H93.4a5,5,0,0,0-5,5v5H195v-5a5,5,0,0,0-5-5h-1.6V182.2a19.2,19.2,0,0,0-7.1-14.9l-19.8-16a2.9,2.9,0,0,1-1.1-2.2V134.4A2.7,2.7,0,0,1,161.5,132.2ZM175,175.1a8.9,8.9,0,0,1,3.4,7.1v36.7l-27-22.6a13.9,13.9,0,0,0-19.3,0l-27,22.6V182.2a8.9,8.9,0,0,1,3.4-7.1L128.3,159a12.6,12.6,0,0,0,4.7-9.9v-12h4.3a4.4,4.4,0,0,0-.6,2.3,5,5,0,0,0,5,5.1,5.1,5.1,0,0,0,5.1-5.1,4.4,4.4,0,0,0-.6-2.3h4.2v12a12.7,12.7,0,0,0,4.8,9.9Zm-69.9-74.9V64.6h73.3v35.6Z"/></svg>