<?xml version="1.0" encoding="UTF-8"?><svg id="Laag_1" xmlns="http://www.w3.org/2000/svg" viewBox="0 0 283.5 283.5"><defs><style>.cls-1,.cls-2{fill:#fff;}.cls-3,.cls-2{opacity:.8;}</style></defs><g><g class="cls-3"><path class="cls-1" d="M153,148.1l-19.6,34c-7,12.1-24.5,12.1-31.5,0l-19.6-34h70.8Z"/><path class="cls-1" d="M117.6,148.1l-27.9,48.3c-7,12.1-24.5,12.1-31.5,0l-27.9-48.3H117.6Z"/></g><polygon class="cls-1" points="117.6 148.1 82.3 148.1 100 178.7 117.6 148.1"/></g><path class="cls-2" d="M82.3,148.1l-25.4-44c-7-12.1-24.5-12.1-31.5,0L0,148.1H82.3Z"/><path class="cls-2" d="M133,148.1l-35.2-61c-7-12.1-24.5-12.1-31.5,0l-35.2,61h101.9Z"/><path class="cls-1" d="M56.7,103.8l-25.6,44.3h51.2l-25.4-44c0-.1-.1-.2-.2-.3Z"/><path class="cls-1" d="M132.7,120c-.1-.4,.1-.7,.6-.7h3.6c.2,0,.5,.2,.6,.4l2.7,11.9h.1l4.8-11.8c0-.2,.3-.3,.5-.3h.6c.3,0,.5,.2,.5,.3l4.8,11.8h.1l2.7-11.9c0-.2,.3-.4,.6-.4h3.6c.4,0,.7,.3,.6,.7l-4.4,19.2c-.6,2.4-3.9,2.6-4.8,.3l-3.8-10.8h0l-3.8,10.8c-.8,2.3-4.2,2.2-4.8-.2l-4.4-19.1Z"/><path class="cls-1" d="M156.2,140.2l9.7-20.8c0-.2,.3-.3,.5-.3h.3c.2,0,.4,.2,.5,.3l9.7,20.8c.2,.4,0,.8-.5,.8h-3.4c-.6,0-.8-.2-1.1-.8l-1.1-2.4h-8.4l-1.1,2.5c-.2,.4-.5,.7-1.1,.7h-3.4c-.5,0-.7-.4-.5-.8Zm12.7-6.6l-2.3-5.1h0l-2.3,5.1h4.7Z"/><path class="cls-1" d="M172.6,120.2c-.2-.4,0-.8,.5-.8h4.1c.2,0,.5,.2,.5,.3l5.1,11.3h.2l5.1-11.3c0-.2,.3-.3,.5-.3h4.1c.5,0,.7,.4,.5,.8l-9.7,20.8c0,.2-.3,.3-.5,.3h-.3c-.2,0-.4-.2-.5-.3l-9.6-20.8Z"/><path class="cls-1" d="M195.7,119.9c0-.3,.2-.6,.6-.6h12.8c.3,0,.6,.3,.6,.6v3.4c0,.3-.2,.6-.6,.6h-8.6v3.8h7c.3,0,.6,.3,.6,.6v3.4c0,.3-.3,.6-.6,.6h-7v4.2h8.6c.3,0,.6,.3,.6,.6v3.4c0,.3-.2,.6-.6,.6h-12.8c-.3,0-.6-.3-.6-.6v-20.4Z"/><path class="cls-1" d="M213.6,119.9c0-.3,.2-.6,.6-.6h3.7c.3,0,.6,.3,.6,.6v16.5h7.4c.3,0,.6,.3,.6,.6v3.4c0,.3-.2,.6-.6,.6h-11.6c-.3,0-.6-.3-.6-.6v-20.4Z"/><path class="cls-1" d="M227.5,140.2l9.7-20.8c0-.2,.3-.3,.5-.3h.3c.2,0,.4,.2,.5,.3l9.7,20.8c.2,.4,0,.8-.5,.8h-3.4c-.6,0-.8-.2-1.1-.8l-1.1-2.4h-8.4l-1.1,2.5c-.2,.4-.5,.7-1.1,.7h-3.4c-.5,0-.7-.4-.5-.8Zm12.7-6.6l-2.3-5.1h0l-2.3,5.1h4.7Z"/><path class="cls-1" d="M250.6,119.9c0-.3,.2-.6,.6-.6h7.4c3.8,0,6.9,3.1,6.9,6.8s-3.1,7-6.9,7h-3.2v7.3c0,.3-.3,.6-.6,.6h-3.6c-.3,0-.6-.3-.6-.6v-20.4Zm7.8,8.7c1.3,0,2.4-1.1,2.4-2.4s-1.1-2.3-2.4-2.3h-2.9v4.7h2.9Z"/><path class="cls-1" d="M268.5,119.9c0-.3,.2-.6,.6-.6h7.4c3.8,0,6.9,3.1,6.9,6.8s-3.1,7-6.9,7h-3.2v7.3c0,.3-.3,.6-.6,.6h-3.6c-.3,0-.6-.3-.6-.6v-20.4Zm7.8,8.7c1.3,0,2.4-1.1,2.4-2.4s-1.1-2.3-2.4-2.3h-2.9v4.7h2.9Z"/></svg>