<?xml version="1.0" encoding="UTF-8"?><svg id="Laag_1" xmlns="http://www.w3.org/2000/svg" viewBox="0 0 283.5 283.5"><defs><style>.cls-1{fill:#fff;}</style></defs><g><path class="cls-1" d="M52.2,85.5c0-.5,.4-.9,.9-.9h5.5c.5,0,.9,.4,.9,.9v30.2c0,.5-.4,.9-.9,.9h-5.5c-.5,0-.9-.4-.9-.9v-30.2Z"/><path class="cls-1" d="M67.6,85c0-.5,.4-.8,.9-.8h1.1l18.2,17.5h0v-16.2c0-.5,.4-.9,.9-.9h5.5c.5,0,.9,.4,.9,.9v30.7c0,.5-.4,.8-.9,.8h-.7c-.1,0-.5-.1-.6-.2l-18-18.1h0v17c0,.5-.4,.9-.9,.9h-5.4c-.5,0-.9-.4-.9-.9v-30.7Z"/><path class="cls-1" d="M101.6,112.3l2.1-3.8c.4-.6,1.2-.5,1.6-.3,.2,0,3.5,2.5,6.5,2.5s3.1-1.1,3.1-2.7-1.6-3.4-4.7-4.6c-3.9-1.6-8.9-4.6-8.9-10.1s3.5-9.1,10.5-9.1,8.4,2.4,9.8,3.4c.5,.3,.5,1.1,.3,1.5l-2.3,3.5c-.3,.5-1.1,.9-1.6,.6-.4-.2-3.7-2.7-6.5-2.7s-2.9,1.1-2.9,2.3,1.4,3,5,4.4c3.6,1.4,9.2,4.2,9.2,10.4s-4.1,9.4-10.8,9.4-9.2-2.5-10.3-3.5c-.5-.5-.6-.6-.2-1.3Z"/><path class="cls-1" d="M128.9,85.5c0-.5,.4-.9,.9-.9h5.5c.5,0,.9,.4,.9,.9v30.2c0,.5-.4,.9-.9,.9h-5.5c-.5,0-.9-.4-.9-.9v-30.2Z"/><path class="cls-1" d="M158.5,84.3c3.8,0,8,1.6,11.1,4.3,.4,.3,.5,.9,0,1.2l-3.6,3.8c-.4,.3-.9,.3-1.2,0-1.7-1.6-3.7-2.2-6-2.2-5,0-9,4.2-9,9.2s4.1,9.1,9,9.1,2.7-.2,4.1-.7v-2.6h-2.9c-.5,0-.9-.4-.9-.8v-4.5c0-.5,.4-.9,.9-.9h9.2c.5,0,.8,.4,.8,.9v12.3c0,.2-.1,.6-.3,.7,0,0-4.7,3-11.3,3s-16.4-7.2-16.4-16.3,7.3-16.4,16.4-16.4Z"/><path class="cls-1" d="M176.9,85.5c0-.5,.4-.9,.9-.9h5.4c.5,0,.9,.4,.9,.9v11.5h13.1v-11.5c0-.5,.4-.9,.9-.9h5.4c.5,0,.9,.4,.9,.9v30.2c0,.5-.4,.9-.9,.9h-5.4c-.5,0-.9-.4-.9-.9v-12h-13.1v12c0,.5-.4,.9-.9,.9h-5.4c-.5,0-.9-.4-.9-.9v-30.2Z"/><path class="cls-1" d="M216.7,91.4h-6.5c-.5,0-.9-.4-.9-.9v-5c0-.5,.4-.9,.9-.9h20.3c.5,0,.9,.4,.9,.9v5c0,.5-.4,.9-.9,.9h-6.5v24.4c0,.5-.4,.9-.9,.9h-5.5c-.5,0-.9-.4-.9-.9v-24.4Z"/></g><g><path class="cls-1" d="M56.9,126.6c0-.5,.4-.9,.9-.9h5.5c.5,0,.9,.4,.9,.9v30.2c0,.5-.4,.9-.9,.9h-5.5c-.5,0-.9-.4-.9-.9v-30.2Z"/><path class="cls-1" d="M86.5,125.3c3.8,0,8,1.6,11.1,4.3,.4,.3,.5,.9,0,1.2l-3.6,3.8c-.4,.3-.9,.3-1.2,0-1.7-1.6-3.7-2.2-6-2.2-5,0-9,4.2-9,9.2s4.1,9.1,9,9.1,2.7-.2,4.1-.7v-2.6h-2.9c-.5,0-.9-.4-.9-.8v-4.5c0-.5,.4-.9,.9-.9h9.2c.5,0,.8,.4,.8,.9v12.3c0,.2-.1,.6-.3,.7,0,0-4.7,3-11.3,3s-16.4-7.2-16.4-16.3,7.3-16.4,16.4-16.4Z"/><path class="cls-1" d="M104.9,126.1c0-.5,.4-.8,.9-.8h1.1l18.2,17.5h0v-16.2c0-.5,.4-.9,.9-.9h5.5c.5,0,.9,.4,.9,.9v30.7c0,.5-.4,.8-.9,.8h-.7c-.1,0-.5-.1-.6-.2l-18-18.1h0v17c0,.5-.4,.9-.9,.9h-5.4c-.5,0-.9-.4-.9-.9v-30.7Z"/><path class="cls-1" d="M140.7,126.6c0-.5,.4-.9,.9-.9h5.5c.5,0,.9,.4,.9,.9v30.2c0,.5-.4,.9-.9,.9h-5.5c-.5,0-.9-.4-.9-.9v-30.2Z"/><path class="cls-1" d="M160.3,132.5h-6.5c-.5,0-.9-.4-.9-.9v-5c0-.5,.4-.9,.9-.9h20.3c.5,0,.9,.4,.9,.9v5c0,.5-.4,.9-.9,.9h-6.5v24.4c0,.5-.4,.9-.9,.9h-5.5c-.5,0-.9-.4-.9-.9v-24.4Z"/><path class="cls-1" d="M179.9,126.6c0-.5,.4-.9,.9-.9h18.9c.5,0,.9,.4,.9,.9v5c0,.5-.4,.9-.9,.9h-12.6v5.7h10.4c.5,0,.9,.4,.9,.9v5c0,.5-.4,.9-.9,.9h-10.4v6.2h12.6c.5,0,.9,.4,.9,.9v5c0,.5-.4,.9-.9,.9h-18.9c-.5,0-.9-.4-.9-.9v-30.2Z"/><path class="cls-1" d="M205.3,153.4l2.1-3.8c.4-.6,1.2-.5,1.6-.3,.2,0,3.5,2.5,6.5,2.5s3.2-1.1,3.2-2.7-1.6-3.4-4.7-4.6c-3.9-1.6-8.9-4.6-8.9-10.1s3.5-9.1,10.5-9.1,8.4,2.4,9.8,3.4c.5,.3,.5,1.1,.3,1.5l-2.3,3.5c-.3,.5-1.1,.9-1.6,.6-.4-.2-3.7-2.7-6.5-2.7s-2.9,1.1-2.9,2.3,1.4,3,5,4.4c3.6,1.4,9.2,4.2,9.2,10.4s-4.1,9.4-10.8,9.4-9.2-2.5-10.3-3.5c-.5-.5-.6-.6-.2-1.3Z"/></g><g><path class="cls-1" d="M0,167.7C0,167.3,.4,166.8,.9,166.8H6.3c.5,0,.9,.4,.9,.9v30.2c0,.5-.4,.9-.9,.9H.9C.4,198.8,0,198.4,0,197.9v-30.2Z"/><path class="cls-1" d="M15.5,167.2c0-.5,.4-.8,.9-.8h1.1l18.2,17.5h0v-16.2c0-.5,.4-.9,.9-.9h5.5c.5,0,.9,.4,.9,.9v30.7c0,.5-.4,.8-.9,.8h-.7c-.1,0-.5-.1-.6-.2l-18-18.1h0v17c0,.5-.4,.9-.9,.9h-5.4c-.5,0-.9-.4-.9-.9v-30.7Z"/><path class="cls-1" d="M51.2,167.2c0-.5,.4-.8,.9-.8h1.1l18.2,17.5h0v-16.2c0-.5,.4-.9,.9-.9h5.5c.5,0,.9,.4,.9,.9v30.7c0,.5-.4,.8-.9,.8h-.7c-.1,0-.5-.1-.6-.2l-18-18.1h0v17c0,.5-.4,.9-.9,.9h-5.4c-.5,0-.9-.4-.9-.9v-30.7Z"/><path class="cls-1" d="M101,166.4c9.1,0,16.4,7.3,16.4,16.5s-7.3,16.4-16.4,16.4-16.4-7.3-16.4-16.4,7.3-16.5,16.4-16.5Zm0,25.6c5,0,9.1-4.1,9.1-9.1s-4.1-9.2-9.1-9.2-9.1,4.2-9.1,9.2,4.1,9.1,9.1,9.1Z"/><path class="cls-1" d="M119.1,168c-.3-.6,0-1.2,.8-1.2h6.1c.4,0,.7,.3,.8,.5l7.5,16.7h.3l7.5-16.7c0-.2,.4-.5,.8-.5h6.1c.7,0,1.1,.6,.8,1.2l-14.3,30.7c-.1,.3-.4,.5-.8,.5h-.5c-.4,0-.6-.2-.8-.5l-14.2-30.7Z"/><path class="cls-1" d="M147.2,197.6l14.3-30.7c.1-.3,.5-.5,.8-.5h.5c.3,0,.6,.2,.8,.5l14.3,30.7c.3,.6,0,1.2-.8,1.2h-5.1c-.8,0-1.2-.3-1.6-1.1l-1.6-3.6h-12.4l-1.6,3.7c-.2,.5-.7,1.1-1.6,1.1h-5c-.7,0-1-.6-.8-1.2Zm18.8-9.8l-3.5-7.5h0l-3.4,7.5h6.9Z"/><path class="cls-1" d="M184.4,173.6h-6.5c-.5,0-.9-.4-.9-.9v-5c0-.5,.4-.9,.9-.9h20.3c.5,0,.9,.4,.9,.9v5c0,.5-.4,.9-.9,.9h-6.5v24.4c0,.5-.4,.9-.9,.9h-5.5c-.5,0-.9-.4-.9-.9v-24.4Z"/><path class="cls-1" d="M204.1,167.7c0-.5,.4-.9,.9-.9h5.5c.5,0,.9,.4,.9,.9v30.2c0,.5-.4,.9-.9,.9h-5.5c-.5,0-.9-.4-.9-.9v-30.2Z"/><path class="cls-1" d="M233.6,166.4c9.1,0,16.4,7.3,16.4,16.5s-7.3,16.4-16.4,16.4-16.4-7.3-16.4-16.4,7.3-16.5,16.4-16.5Zm0,25.6c5,0,9.1-4.1,9.1-9.1s-4.1-9.2-9.1-9.2-9.1,4.2-9.1,9.2,4.1,9.1,9.1,9.1Z"/><path class="cls-1" d="M256,167.2c0-.5,.4-.8,.9-.8h1.1l18.2,17.5h0v-16.2c0-.5,.4-.9,.9-.9h5.5c.5,0,.9,.4,.9,.9v30.7c0,.5-.4,.8-.9,.8h-.7c-.1,0-.5-.1-.6-.2l-18-18.1h0v17c0,.5-.4,.9-.9,.9h-5.4c-.5,0-.9-.4-.9-.9v-30.7Z"/></g></svg>