<svg id="Laag_1" data-name="Laag 1" xmlns="http://www.w3.org/2000/svg" viewBox="0 0 283.5 283.5"><defs><style>.cls-1{fill:#fff;}.cls-2{fill:#70706f;}</style></defs><circle class="cls-1" cx="141.7" cy="141.7" r="137.9" transform="translate(-58.7 141.7) rotate(-45)"/><path class="cls-2" d="M141.7,7.7c74,0,134.1,60.1,134.1,134A134.2,134.2,0,0,1,141.7,275.8c-73.9,0-134-60.1-134-134.1a134.1,134.1,0,0,1,134-134m0-7.7C63.6,0,0,63.6,0,141.7S63.6,283.5,141.7,283.5s141.8-63.6,141.8-141.8S219.9,0,141.7,0Z"/><path class="cls-2" d="M198.2,82.7A43.6,43.6,0,0,0,135,142.8a4.8,4.8,0,0,0-1.1.9l-20.8,20.7a12.1,12.1,0,0,0-11.5,3.1L68.8,200.2a12.2,12.2,0,0,0,0,17,12,12,0,0,0,8.5,3.5,11.6,11.6,0,0,0,8.5-3.5l32.7-32.7a11.8,11.8,0,0,0,3.1-11.6l20.8-20.7a6.3,6.3,0,0,0,1.3-2,43.6,43.6,0,0,0,54.5-67.5Zm-5.9,55.8a35.3,35.3,0,0,1-49.9-49.9,35.4,35.4,0,0,1,49.9,0A35.4,35.4,0,0,1,192.3,138.5Z"/><path class="cls-2" d="M167.2,132.5a20.1,20.1,0,0,1-21.1-19.1,3,3,0,1,0-6,.3,26.2,26.2,0,0,0,26.1,24.8h1.3a3,3,0,0,0-.3-6Z"/></svg>